<svg width="96" height="96" viewBox="0 0 96 96" fill="none" xmlns="http://www.w3.org/2000/svg">
<circle cx="48" cy="48" r="48" fill="white"/>
<path d="M48 4.5C55.6358 4.5 63.1372 6.50997 69.75 10.3279C76.3628 14.1458 81.8542 19.6372 85.6721 26.25C89.49 32.8628 91.5 40.3642 91.5 48C91.5 55.6358 89.49 63.1372 85.6721 69.75" stroke="#FF6A00" stroke-width="3" stroke-linecap="round"/>
<path d="M31.128 58.28C29.464 56.2107 28.632 53.384 28.632 49.8C28.632 46.216 29.464 43.3893 31.128 41.32C32.8133 39.2507 35.1493 38.216 38.136 38.216C41.1013 38.216 43.416 39.2507 45.08 41.32C46.7653 43.3893 47.608 46.216 47.608 49.8C47.608 53.384 46.7653 56.2107 45.08 58.28C43.416 60.3493 41.1013 61.384 38.136 61.384C35.1493 61.384 32.8133 60.3493 31.128 58.28ZM33.304 43.08C32.152 44.7227 31.576 46.9627 31.576 49.8C31.576 52.6373 32.152 54.8773 33.304 56.52C34.456 58.1627 36.0667 58.984 38.136 58.984C40.2053 58.984 41.8053 58.1733 42.936 56.552C44.088 54.9093 44.664 52.6587 44.664 49.8C44.664 46.9413 44.088 44.7013 42.936 43.08C41.8053 41.4373 40.2053 40.616 38.136 40.616C36.0667 40.616 34.456 41.4373 33.304 43.08ZM56.418 38.6H58.818V61H55.842V41.864L50.402 45.256V42.344L56.418 38.6Z" fill="#424446"/>
</svg>
