<svg width="96" height="96" viewBox="0 0 96 96" fill="none" xmlns="http://www.w3.org/2000/svg">
<circle cx="48" cy="48" r="48" fill="white"/>
<path d="M31.128 58.28C29.464 56.2107 28.632 53.384 28.632 49.8C28.632 46.216 29.464 43.3893 31.128 41.32C32.8133 39.2507 35.1493 38.216 38.136 38.216C41.1013 38.216 43.416 39.2507 45.08 41.32C46.7653 43.3893 47.608 46.216 47.608 49.8C47.608 53.384 46.7653 56.2107 45.08 58.28C43.416 60.3493 41.1013 61.384 38.136 61.384C35.1493 61.384 32.8133 60.3493 31.128 58.28ZM33.304 43.08C32.152 44.7227 31.576 46.9627 31.576 49.8C31.576 52.6373 32.152 54.8773 33.304 56.52C34.456 58.1627 36.0667 58.984 38.136 58.984C40.2053 58.984 41.8053 58.1733 42.936 56.552C44.088 54.9093 44.664 52.6587 44.664 49.8C44.664 46.9413 44.088 44.7013 42.936 43.08C41.8053 41.4373 40.2053 40.616 38.136 40.616C36.0667 40.616 34.456 41.4373 33.304 43.08ZM53.986 58.6H67.426V61H49.826V58.792L59.682 50.472C60.6633 49.576 61.3887 48.8933 61.858 48.424C62.3487 47.9333 62.8073 47.3147 63.234 46.568C63.6607 45.8 63.874 45.0427 63.874 44.296C63.874 43.08 63.426 42.1627 62.53 41.544C61.634 40.9253 60.4713 40.616 59.042 40.616C57.3993 40.616 56.066 41.0747 55.042 41.992C54.018 42.888 53.4207 44.264 53.25 46.12L50.434 45.928C50.626 43.3467 51.5007 41.416 53.058 40.136C54.6153 38.856 56.6207 38.216 59.074 38.216C61.378 38.216 63.2447 38.7387 64.674 39.784C66.1033 40.8293 66.818 42.312 66.818 44.232C66.818 45.5547 66.4233 46.792 65.634 47.944C64.866 49.0747 63.618 50.3867 61.89 51.88L53.986 58.6Z" fill="#424446"/>
</svg>
