<svg width="96" height="96" viewBox="0 0 96 96" fill="none" xmlns="http://www.w3.org/2000/svg">
<circle cx="48" cy="48" r="48" fill="white"/>
<path d="M48 4.5C55.6358 4.5 63.1372 6.50997 69.75 10.3279C76.3628 14.1458 81.8542 19.6372 85.6721 26.25C89.49 32.8628 91.5 40.3642 91.5 48C91.5 55.6358 89.49 63.1372 85.6721 69.75" stroke="#FA6400" stroke-width="3" stroke-linecap="round"/>
<path d="M30.128 58.28C28.464 56.2107 27.632 53.384 27.632 49.8C27.632 46.216 28.464 43.3893 30.128 41.32C31.8133 39.2507 34.1493 38.216 37.136 38.216C40.1013 38.216 42.416 39.2507 44.08 41.32C45.7653 43.3893 46.608 46.216 46.608 49.8C46.608 53.384 45.7653 56.2107 44.08 58.28C42.416 60.3493 40.1013 61.384 37.136 61.384C34.1493 61.384 31.8133 60.3493 30.128 58.28ZM32.304 43.08C31.152 44.7227 30.576 46.9627 30.576 49.8C30.576 52.6373 31.152 54.8773 32.304 56.52C33.456 58.1627 35.0667 58.984 37.136 58.984C39.2053 58.984 40.8053 58.1733 41.936 56.552C43.088 54.9093 43.664 52.6587 43.664 49.8C43.664 46.9413 43.088 44.7013 41.936 43.08C40.8053 41.4373 39.2053 40.616 37.136 40.616C35.0667 40.616 33.456 41.4373 32.304 43.08ZM58.426 47.496C61.242 47.496 63.3967 48.0827 64.89 49.256C66.3833 50.408 67.13 52.0613 67.13 54.216C67.13 56.4987 66.2873 58.2693 64.602 59.528C62.9167 60.7653 60.698 61.384 57.946 61.384C55.4073 61.384 53.338 60.8293 51.738 59.72C50.138 58.5893 49.2207 56.9147 48.986 54.696L51.802 54.504C51.994 56.0187 52.634 57.1493 53.722 57.896C54.8313 58.6213 56.2393 58.984 57.946 58.984C59.802 58.984 61.306 58.568 62.458 57.736C63.61 56.8827 64.186 55.7093 64.186 54.216C64.186 52.808 63.6633 51.688 62.618 50.856C61.5727 50.024 60.058 49.608 58.074 49.608C56.858 49.608 55.5993 49.736 54.298 49.992V47.944L62.458 41H50.138V38.6H66.458V40.776L58.138 47.496H58.426Z" fill="#424446"/>
</svg>
