<svg width="96" height="96" viewBox="0 0 96 96" fill="none" xmlns="http://www.w3.org/2000/svg">
<circle cx="48" cy="48" r="48" fill="white"/>
<path d="M29.128 58.28C27.464 56.2107 26.632 53.384 26.632 49.8C26.632 46.216 27.464 43.3893 29.128 41.32C30.8133 39.2507 33.1493 38.216 36.136 38.216C39.1013 38.216 41.416 39.2507 43.08 41.32C44.7653 43.3893 45.608 46.216 45.608 49.8C45.608 53.384 44.7653 56.2107 43.08 58.28C41.416 60.3493 39.1013 61.384 36.136 61.384C33.1493 61.384 30.8133 60.3493 29.128 58.28ZM31.304 43.08C30.152 44.7227 29.576 46.9627 29.576 49.8C29.576 52.6373 30.152 54.8773 31.304 56.52C32.456 58.1627 34.0667 58.984 36.136 58.984C38.2053 58.984 39.8053 58.1733 40.936 56.552C42.088 54.9093 42.664 52.6587 42.664 49.8C42.664 46.9413 42.088 44.7013 40.936 43.08C39.8053 41.4373 38.2053 40.616 36.136 40.616C34.0667 40.616 32.456 41.4373 31.304 43.08ZM68.178 53.352V55.752H64.21V61H61.266V55.752H48.114V53.544L59.442 38.6H64.21V53.352H68.178ZM51.25 53.352H61.266V40.136L51.25 53.352Z" fill="#424446"/>
</svg>
