<svg width="96" height="96" viewBox="0 0 96 96" fill="none" xmlns="http://www.w3.org/2000/svg">
<circle cx="48" cy="48" r="48" fill="white"/>
<path d="M30.128 58.28C28.464 56.2107 27.632 53.384 27.632 49.8C27.632 46.216 28.464 43.3893 30.128 41.32C31.8133 39.2507 34.1493 38.216 37.136 38.216C40.1013 38.216 42.416 39.2507 44.08 41.32C45.7653 43.3893 46.608 46.216 46.608 49.8C46.608 53.384 45.7653 56.2107 44.08 58.28C42.416 60.3493 40.1013 61.384 37.136 61.384C34.1493 61.384 31.8133 60.3493 30.128 58.28ZM32.304 43.08C31.152 44.7227 30.576 46.9627 30.576 49.8C30.576 52.6373 31.152 54.8773 32.304 56.52C33.456 58.1627 35.0667 58.984 37.136 58.984C39.2053 58.984 40.8053 58.1733 41.936 56.552C43.088 54.9093 43.664 52.6587 43.664 49.8C43.664 46.9413 43.088 44.7013 41.936 43.08C40.8053 41.4373 39.2053 40.616 37.136 40.616C35.0667 40.616 33.456 41.4373 32.304 43.08ZM59.162 46.216C61.6153 46.216 63.5993 46.8773 65.114 48.2C66.6287 49.5013 67.386 51.3253 67.386 53.672C67.386 56.104 66.554 58.0027 64.89 59.368C63.2473 60.712 61.05 61.384 58.298 61.384C55.866 61.384 53.818 60.8507 52.154 59.784C50.49 58.696 49.4873 57.1707 49.146 55.208L52.026 55.016C52.3033 56.296 53.0073 57.2773 54.138 57.96C55.29 58.6427 56.666 58.984 58.266 58.984C60.0367 58.984 61.5087 58.536 62.682 57.64C63.8553 56.7227 64.442 55.4 64.442 53.672C64.442 51.944 63.866 50.6427 62.714 49.768C61.562 48.8933 60.1113 48.456 58.362 48.456C57.1247 48.456 55.9727 48.6693 54.906 49.096C53.8393 49.5227 52.986 50.152 52.346 50.984L49.754 50.76L50.842 38.6H66.01V41H53.018L52.346 48.776C53.9887 47.0693 56.2607 46.216 59.162 46.216Z" fill="#424446"/>
</svg>
