<svg width="320" height="320" viewBox="0 0 320 320" fill="none" xmlns="http://www.w3.org/2000/svg">
<path d="M0 0C42.023 0 83.6344 8.27703 122.459 24.3585C161.283 40.44 196.559 64.011 226.274 93.7257C255.989 123.44 279.56 158.717 295.641 197.541C311.723 236.365 320 277.977 320 320H257.964C257.964 286.123 251.292 252.579 238.328 221.281C225.364 189.983 206.363 161.546 182.408 137.591C158.454 113.637 130.016 94.6356 98.7187 81.6717C67.421 68.7077 33.8764 62.0353 0 62.0353V0Z" fill="url(#paint0_linear_1_547)"/>
<path d="M0 108.369C27.7918 108.369 55.3115 113.843 80.9878 124.478C106.664 135.114 129.994 150.702 149.646 170.354C169.298 190.006 184.886 213.336 195.522 239.012C206.157 264.688 211.631 292.208 211.631 320H149.596C149.596 300.355 145.727 280.902 138.209 262.752C130.691 244.602 119.672 228.111 105.78 214.22C91.8891 200.328 75.3978 189.309 57.248 181.791C39.0981 174.273 19.6452 170.404 0 170.404V108.369Z" fill="url(#paint1_linear_1_547)"/>
<path d="M0 227.113C12.1981 227.113 24.2768 229.515 35.5463 234.183C45.2673 238.21 54.222 243.854 62.0353 250.865C63.28 251.982 64.4958 253.134 65.6811 254.319C66.8664 255.504 68.018 256.72 69.1349 257.965C76.1458 265.778 81.7899 274.733 85.8165 284.454C90.4845 295.723 92.8871 307.802 92.8871 320H19C8.50659 320 0 311.493 0 301V227.113Z" fill="url(#paint2_linear_1_547)"/>
<defs>
<linearGradient id="paint0_linear_1_547" x1="12.3077" y1="69.9999" x2="335.534" y2="92.0244" gradientUnits="userSpaceOnUse">
<stop stop-color="#FAAF00"/>
<stop offset="1" stop-color="#FA6400"/>
</linearGradient>
<linearGradient id="paint1_linear_1_547" x1="12.3077" y1="69.9999" x2="335.534" y2="92.0244" gradientUnits="userSpaceOnUse">
<stop stop-color="#FAAF00"/>
<stop offset="1" stop-color="#FA6400"/>
</linearGradient>
<linearGradient id="paint2_linear_1_547" x1="12.3077" y1="69.9999" x2="335.534" y2="92.0244" gradientUnits="userSpaceOnUse">
<stop stop-color="#FAAF00"/>
<stop offset="1" stop-color="#FA6400"/>
</linearGradient>
</defs>
</svg>
