<svg width="320" height="335" viewBox="0 0 320 335" fill="none" xmlns="http://www.w3.org/2000/svg">
<path d="M320 14C277.977 14 236.366 22.277 197.541 38.3585C158.717 54.44 123.441 78.011 93.7261 107.726C64.0114 137.44 40.4404 172.717 24.3589 211.541C8.27737 250.365 0.000335693 291.977 0.000335693 334H62.0357C62.0357 300.123 68.7081 266.579 81.672 235.281C94.636 203.983 113.637 175.546 137.592 151.591C161.546 127.637 189.984 108.636 221.281 95.6717C252.579 82.7077 286.124 76.0353 320 76.0353V14Z" fill="url(#paint0_linear_1_488)"/>
<path d="M320 122.369C292.208 122.369 264.688 127.843 239.012 138.478C213.336 149.114 190.006 164.702 170.354 184.354C150.702 204.006 135.114 227.336 124.478 253.012C113.843 278.688 108.369 306.208 108.369 334H170.404C170.404 314.355 174.273 294.902 181.791 276.752C189.309 258.602 200.328 242.111 214.22 228.22C228.111 214.328 244.602 203.309 262.752 195.791C280.902 188.273 300.355 184.404 320 184.404V122.369Z" fill="url(#paint1_linear_1_488)"/>
<path d="M320 241.113C307.802 241.113 295.723 243.515 284.454 248.183C274.733 252.21 265.778 257.854 257.965 264.865C256.72 265.982 255.504 267.134 254.319 268.319C253.134 269.504 251.982 270.72 250.865 271.965C243.854 279.778 238.21 288.733 234.184 298.454C229.516 309.723 227.113 321.802 227.113 334H301C311.493 334 320 325.493 320 315V241.113Z" fill="url(#paint2_linear_1_488)"/>
<defs>
<linearGradient id="paint0_linear_1_488" x1="307.692" y1="83.9999" x2="-15.5338" y2="106.024" gradientUnits="userSpaceOnUse">
<stop stop-color="#FAAF00"/>
<stop offset="1" stop-color="#FA6400"/>
</linearGradient>
<linearGradient id="paint1_linear_1_488" x1="307.692" y1="83.9999" x2="-15.5338" y2="106.024" gradientUnits="userSpaceOnUse">
<stop stop-color="#FAAF00"/>
<stop offset="1" stop-color="#FA6400"/>
</linearGradient>
<linearGradient id="paint2_linear_1_488" x1="307.692" y1="83.9999" x2="-15.5338" y2="106.024" gradientUnits="userSpaceOnUse">
<stop stop-color="#FAAF00"/>
<stop offset="1" stop-color="#FA6400"/>
</linearGradient>
</defs>
</svg>
