<svg width="88" height="29" viewBox="0 0 88 29" fill="none" xmlns="http://www.w3.org/2000/svg">
<path fill-rule="evenodd" clip-rule="evenodd" d="M11.476 18.2624L15.9546 18.3528L15.9887 18.723L7.66144 20.434L14.1674 5.49448L20.6423 20.3651H18.0457L14.1905 11.3248L11.476 18.2624Z" fill="white"/>
<path d="M4.90494 24.3363L4.88822 24.3203L4.8705 24.3054C3.73174 23.348 0.934377 20.4472 0.716644 15.2383L0.716555 0.850308L14.6 0.854418L14.6008 0.854417C19.9597 0.850302 22.7882 3.29395 24.0407 4.43611C29.452 9.62337 29.6247 18.2016 24.4254 23.6013C19.2015 29.0264 10.3015 29.5031 4.90494 24.3363Z" stroke="white" stroke-width="1.4331"/>
<path d="M34.307 13.6034C33.6437 13.1411 33.3121 12.4879 33.3121 11.6438C33.3121 10.7996 33.6437 10.1514 34.307 9.69917C34.9753 9.24694 35.8345 9.02082 36.8847 9.02082H39.3795C39.3795 8.43292 39.2564 8.0234 39.0102 7.79226C38.764 7.56112 38.3318 7.44555 37.7138 7.44555C37.1008 7.44555 36.6686 7.59881 36.4174 7.90532C36.1712 8.2068 35.8672 8.35755 35.5054 8.35755H34.3824C34.2467 8.35755 34.1336 8.31484 34.0432 8.22942C33.9578 8.13897 33.9151 8.02843 33.9151 7.89778C33.9151 6.45567 35.2843 5.73461 38.0228 5.73461C39.2187 5.73461 40.1785 6.00344 40.902 6.54109C41.6256 7.07372 41.9874 7.90029 41.9874 9.02082V13.6863C41.9874 13.822 41.9447 13.9326 41.8592 14.018C41.7738 14.1034 41.6633 14.1461 41.5276 14.1461H40.0729C39.9373 14.1461 39.8267 14.1034 39.7413 14.018C39.6559 13.9275 39.6132 13.817 39.6132 13.6863V13.4527C38.8192 14.0205 37.9022 14.3019 36.8621 14.2968C35.827 14.2968 34.9753 14.0657 34.307 13.6034ZM37.0656 10.7318C36.7139 10.7318 36.435 10.8172 36.229 10.988C36.028 11.1589 35.9275 11.38 35.9275 11.6513C35.9275 11.9226 36.033 12.1462 36.244 12.3221C36.4551 12.498 36.7541 12.5859 37.141 12.5859C37.9148 12.5859 38.661 12.3598 39.3795 11.9076V10.7318H37.0656Z" fill="white"/>
<path d="M50.3341 7.7998L49.1733 7.75457C48.495 7.75457 47.8468 8.12641 47.2287 8.87008V13.6863C47.2287 13.822 47.1835 13.9326 47.0931 14.018C47.0076 14.1034 46.8996 14.1461 46.769 14.1461H45.0806C44.945 14.1461 44.8344 14.1034 44.749 14.018C44.6636 13.9326 44.6209 13.822 44.6209 13.6863V6.35266C44.6209 6.21699 44.6636 6.10644 44.749 6.02102C44.8394 5.93058 44.95 5.88535 45.0806 5.88535H46.769C46.9046 5.88535 47.0152 5.93058 47.1006 6.02102C47.186 6.10644 47.2287 6.21699 47.2287 6.35266V6.8275C47.7413 6.45567 48.2337 6.18182 48.706 6.00595C49.1834 5.82506 49.8064 5.73461 50.5752 5.73461C50.7109 5.73461 50.8215 5.77983 50.9069 5.87028C50.9973 5.9557 51.0425 6.06373 51.0425 6.19438V7.34003C51.0425 7.4757 50.9973 7.58624 50.9069 7.67167C50.8215 7.75709 50.7109 7.7998 50.5752 7.7998H50.3341Z" fill="white"/>
<path d="M52.8997 3.80509C52.8997 3.66942 52.9424 3.55888 53.0278 3.47346C53.1183 3.38301 53.2288 3.33779 53.3595 3.33779H55.0478C55.1784 3.33779 55.2865 3.38301 55.3719 3.47346C55.4624 3.55888 55.5076 3.66942 55.5076 3.80509V6.11901C56.3216 5.86274 57.0477 5.73461 57.6858 5.73461C58.9219 5.73461 59.9043 6.10393 60.6329 6.84257C61.3615 7.57619 61.7257 8.63642 61.7257 10.0233C61.7257 12.8723 60.1304 14.2968 56.9396 14.2968C56.211 14.2968 55.4548 14.2165 54.6709 14.0557C53.8921 13.8898 53.3017 13.6888 52.8997 13.4527V3.80509ZM55.5076 7.86009V12.307C55.9397 12.4226 56.4899 12.4804 57.1582 12.4804C57.8265 12.4804 58.3064 12.2869 58.5978 11.9C58.8943 11.5131 59.0425 10.8875 59.0425 10.0233C59.0425 9.159 58.8968 8.53342 58.6054 8.14651C58.3189 7.75457 57.8315 7.55861 57.1431 7.55861C56.701 7.55861 56.1558 7.6591 55.5076 7.86009Z" fill="white"/>
<path d="M63.8919 4.31008V4.05382C63.8919 3.7875 63.9673 3.57646 64.118 3.42069C64.2738 3.26493 64.4874 3.18704 64.7587 3.18704H65.6933C65.9596 3.18704 66.1707 3.26493 66.3264 3.42069C66.4822 3.57144 66.5601 3.78248 66.5601 4.05382V4.31008C66.5601 4.5764 66.4822 4.78744 66.3264 4.94321C66.1757 5.09897 65.9647 5.17686 65.6933 5.17686H64.7587C64.4924 5.17686 64.2814 5.09897 64.1256 4.94321C63.9698 4.78744 63.8919 4.5764 63.8919 4.31008ZM63.9221 13.6863V6.53355C63.9221 6.39788 63.9648 6.28734 64.0502 6.20191C64.1407 6.11649 64.2512 6.07378 64.3818 6.07378H66.0702C66.2058 6.07378 66.3164 6.11901 66.4018 6.20945C66.4872 6.29487 66.5299 6.40291 66.5299 6.53355V13.6863C66.5299 13.822 66.4847 13.9326 66.3943 14.018C66.3089 14.1034 66.2008 14.1461 66.0702 14.1461H64.3818C64.2462 14.1461 64.1356 14.1034 64.0502 14.018C63.9648 13.9326 63.9221 13.822 63.9221 13.6863Z" fill="white"/>
<path d="M70.8216 11.7041C71.5 11.7041 71.8391 12.0457 71.8391 12.7291V13.204C71.8391 13.5205 71.7512 13.7692 71.5753 13.9501C71.4045 14.131 71.1533 14.2215 70.8216 14.2215H69.8945C69.5629 14.2215 69.3092 14.131 69.1333 13.9501C68.9624 13.7692 68.877 13.5205 68.877 13.204V12.7291C68.877 12.3975 68.965 12.1437 69.1408 11.9679C69.3167 11.792 69.5679 11.7041 69.8945 11.7041H70.8216ZM69.8945 8.25203C69.2162 8.25203 68.877 7.91034 68.877 7.22697V6.75213C68.877 6.43557 68.965 6.18684 69.1408 6.00595C69.3167 5.82506 69.5679 5.73461 69.8945 5.73461H70.8216C71.1533 5.73461 71.4045 5.82506 71.5753 6.00595C71.7512 6.18684 71.8391 6.43557 71.8391 6.75213V7.22697C71.8391 7.91034 71.5 8.25203 70.8216 8.25203H69.8945Z" fill="white"/>
<path d="M74.1636 13.6863V6.35266C74.1636 6.21699 74.2063 6.10644 74.2917 6.02102C74.3822 5.93058 74.4927 5.88535 74.6234 5.88535H76.3117C76.4474 5.88535 76.5579 5.93058 76.6433 6.02102C76.7288 6.10644 76.7715 6.21699 76.7715 6.35266V6.8275C77.1333 6.47577 77.4875 6.20694 77.8342 6.02102C78.1859 5.83008 78.608 5.73461 79.1005 5.73461C80.2712 5.73461 81.1581 6.21699 81.7611 7.18175C82.6957 6.21196 83.6529 5.72958 84.6328 5.73461C85.6176 5.73461 86.3939 6.03107 86.9617 6.624C87.5346 7.2119 87.821 8.1239 87.821 9.35999V13.6863C87.821 13.822 87.7783 13.9326 87.6928 14.018C87.6074 14.1034 87.4969 14.1461 87.3612 14.1461H85.6804C85.5448 14.1461 85.4317 14.1034 85.3412 14.018C85.2558 13.9275 85.2131 13.817 85.2131 13.6863V9.35999C85.2131 8.15404 84.776 7.55358 83.9016 7.55861C83.369 7.55861 82.8188 7.943 82.251 8.7118C82.2812 8.92786 82.2962 9.14393 82.2962 9.35999V13.6863C82.2962 13.822 82.251 13.9326 82.1606 14.018C82.0751 14.1034 81.9671 14.1461 81.8365 14.1461H80.1557C80.02 14.1461 79.9069 14.1034 79.8165 14.018C79.7311 13.9275 79.6884 13.817 79.6884 13.6863V9.35999C79.6884 8.15404 79.2512 7.55358 78.3769 7.55861C77.8191 7.55861 77.284 7.91788 76.7715 8.63642V13.6863C76.7715 13.822 76.7262 13.9326 76.6358 14.018C76.5504 14.1034 76.4423 14.1461 76.3117 14.1461H74.6234C74.4877 14.1461 74.3772 14.1034 74.2917 14.018C74.2063 13.9326 74.1636 13.822 74.1636 13.6863Z" fill="white"/>
<path d="M35.4952 24.087C34.8645 24.087 34.3364 23.8652 33.9109 23.4215C33.4884 22.9779 33.2771 22.3426 33.2771 21.5158C33.2771 20.6858 33.4959 20.0506 33.9335 19.61C34.3741 19.1663 34.9656 18.9445 35.708 18.9445C36.0913 18.9445 36.5273 19.0215 37.0162 19.1754V17.7857C37.0162 17.7042 37.0419 17.6378 37.0932 17.5865C37.1475 17.5322 37.2139 17.505 37.2924 17.505H38.3019C38.3833 17.505 38.4497 17.5322 38.501 17.5865C38.5554 17.6378 38.5825 17.7042 38.5825 17.7857V23.7203C38.5825 23.7988 38.5554 23.8652 38.501 23.9195C38.4497 23.9708 38.3833 23.9964 38.3019 23.9964H37.4327C37.3512 23.9964 37.2848 23.9708 37.2335 23.9195C37.1822 23.8652 37.1566 23.7988 37.1566 23.7203V23.58C36.6797 23.918 36.126 24.087 35.4952 24.087ZM36.0339 20.04C35.6175 20.04 35.3232 20.1577 35.1512 20.3931C34.9792 20.6255 34.8932 20.9997 34.8932 21.5158C34.8932 22.0318 34.9747 22.4075 35.1376 22.6429C35.3006 22.8783 35.545 22.996 35.871 22.996C36.1999 22.996 36.5817 22.8602 37.0162 22.5886V20.2211C36.6269 20.1004 36.2995 20.04 36.0339 20.04Z" fill="white"/>
<path d="M40.4204 18.089V17.9351C40.4204 17.7751 40.4657 17.6484 40.5562 17.5548C40.6498 17.4612 40.778 17.4145 40.941 17.4145H41.5023C41.6622 17.4145 41.789 17.4612 41.8826 17.5548C41.9761 17.6453 42.0229 17.7721 42.0229 17.9351V18.089C42.0229 18.2489 41.9761 18.3757 41.8826 18.4692C41.792 18.5628 41.6653 18.6095 41.5023 18.6095H40.941C40.781 18.6095 40.6543 18.5628 40.5607 18.4692C40.4672 18.3757 40.4204 18.2489 40.4204 18.089ZM40.4385 23.7203V19.4244C40.4385 19.3429 40.4642 19.2765 40.5155 19.2252C40.5698 19.1739 40.6362 19.1482 40.7146 19.1482H41.7286C41.8101 19.1482 41.8765 19.1754 41.9278 19.2297C41.9791 19.281 42.0048 19.3459 42.0048 19.4244V23.7203C42.0048 23.8018 41.9776 23.8682 41.9233 23.9195C41.872 23.9708 41.8071 23.9964 41.7286 23.9964H40.7146C40.6332 23.9964 40.5668 23.9708 40.5155 23.9195C40.4642 23.8682 40.4385 23.8018 40.4385 23.7203Z" fill="white"/>
<path d="M45.8707 23.6162C45.1856 23.6162 44.6318 23.4095 44.2093 22.996C43.7898 22.5826 43.5801 22.0092 43.5801 21.2758C43.5801 20.5425 43.82 19.9706 44.2999 19.5602C44.7797 19.1497 45.4678 18.9445 46.3641 18.9445C46.8017 18.9445 47.2559 18.9943 47.7267 19.0939C48.1974 19.1905 48.552 19.3097 48.7905 19.4515V23.6434C48.7905 24.3163 48.5686 24.8128 48.125 25.1327C47.6814 25.4556 47.0582 25.617 46.2554 25.617C45.4557 25.617 44.8386 25.5159 44.404 25.3137C43.9724 25.1146 43.7567 24.7841 43.7567 24.3224C43.7567 24.2409 43.7823 24.173 43.8336 24.1187C43.8879 24.0674 43.9558 24.0417 44.0373 24.0417H44.7118C44.9291 24.0417 45.1026 24.1217 45.2324 24.2816C45.3984 24.4868 45.6926 24.5895 46.1151 24.5895C46.5406 24.5895 46.8319 24.52 46.9888 24.3812C47.1457 24.2424 47.2242 23.9964 47.2242 23.6434V23.4306C46.7413 23.5543 46.2902 23.6162 45.8707 23.6162ZM46.269 20.04C45.5538 20.037 45.1962 20.4504 45.1962 21.2804C45.1962 22.1073 45.5447 22.5207 46.2419 22.5207C46.5316 22.5207 46.859 22.4754 47.2242 22.3849V20.1396C46.9646 20.0702 46.6463 20.037 46.269 20.04Z" fill="white"/>
<path d="M50.6329 18.089V17.9351C50.6329 17.7751 50.6781 17.6484 50.7687 17.5548C50.8622 17.4612 50.9905 17.4145 51.1535 17.4145H51.7148C51.8747 17.4145 52.0015 17.4612 52.095 17.5548C52.1886 17.6453 52.2354 17.7721 52.2354 17.9351V18.089C52.2354 18.2489 52.1886 18.3757 52.095 18.4692C52.0045 18.5628 51.8777 18.6095 51.7148 18.6095H51.1535C50.9935 18.6095 50.8668 18.5628 50.7732 18.4692C50.6796 18.3757 50.6329 18.2489 50.6329 18.089ZM50.651 23.7203V19.4244C50.651 19.3429 50.6766 19.2765 50.7279 19.2252C50.7823 19.1739 50.8486 19.1482 50.9271 19.1482H51.9411C52.0226 19.1482 52.089 19.1754 52.1403 19.2297C52.1916 19.281 52.2172 19.3459 52.2172 19.4244V23.7203C52.2172 23.8018 52.1901 23.8682 52.1358 23.9195C52.0845 23.9708 52.0196 23.9964 51.9411 23.9964H50.9271C50.8456 23.9964 50.7792 23.9708 50.7279 23.9195C50.6766 23.8682 50.651 23.8018 50.651 23.7203Z" fill="white"/>
<path d="M56.4362 23.0141L57.0564 22.9598H57.2239C57.3054 22.9598 57.3718 22.9855 57.4231 23.0368C57.4774 23.0881 57.5046 23.1545 57.5046 23.2359V23.7203C57.5046 23.7867 57.4774 23.8471 57.4231 23.9014C57.3718 23.9527 57.3054 23.9844 57.2239 23.9964C56.9161 24.0568 56.5147 24.087 56.0198 24.087C54.7221 24.087 54.0732 23.408 54.0732 22.0499V17.7857C54.0732 17.7042 54.0989 17.6378 54.1502 17.5865C54.2045 17.5322 54.2709 17.505 54.3494 17.505H55.3634C55.4418 17.505 55.5067 17.5322 55.558 17.5865C55.6124 17.6378 55.6395 17.7042 55.6395 17.7857V19.2976H56.9025C56.981 19.2976 57.0458 19.3233 57.0971 19.3746C57.1515 19.4259 57.1786 19.4923 57.1786 19.5738V20.1124C57.1786 20.1939 57.1515 20.2603 57.0971 20.3116C57.0458 20.3629 56.981 20.3886 56.9025 20.3886H55.6395V22.0499C55.6395 22.3577 55.7119 22.5961 55.8568 22.7652C56.0017 22.9311 56.1948 23.0141 56.4362 23.0141Z" fill="white"/>
<path d="M59.2428 23.6705C58.8445 23.3929 58.6453 23.0005 58.6453 22.4935C58.6453 21.9865 58.8445 21.5972 59.2428 21.3256C59.6442 21.054 60.1603 20.9182 60.791 20.9182H62.2894C62.2894 20.5651 62.2155 20.3192 62.0676 20.1803C61.9197 20.0415 61.6602 19.9721 61.289 19.9721C60.9208 19.9721 60.6612 20.0642 60.5104 20.2482C60.3625 20.4293 60.1799 20.5199 59.9626 20.5199H59.2881C59.2066 20.5199 59.1387 20.4942 59.0844 20.4429C59.0331 20.3886 59.0075 20.3222 59.0075 20.2437C59.0075 19.3776 59.8298 18.9445 61.4746 18.9445C62.1928 18.9445 62.7692 19.106 63.2038 19.4289C63.6384 19.7488 63.8557 20.2452 63.8557 20.9182V23.7203C63.8557 23.8018 63.83 23.8682 63.7787 23.9195C63.7274 23.9708 63.661 23.9964 63.5795 23.9964H62.7059C62.6244 23.9964 62.558 23.9708 62.5067 23.9195C62.4554 23.8652 62.4297 23.7988 62.4297 23.7203V23.58C61.9529 23.921 61.4021 24.09 60.7774 24.087C60.1558 24.087 59.6442 23.9482 59.2428 23.6705ZM60.8997 21.9458C60.6884 21.9458 60.5209 21.9971 60.3972 22.0997C60.2765 22.2023 60.2161 22.3351 60.2161 22.4981C60.2161 22.661 60.2795 22.7953 60.4062 22.901C60.533 23.0066 60.7126 23.0594 60.9449 23.0594C61.4097 23.0594 61.8578 22.9236 62.2894 22.652V21.9458H60.8997Z" fill="white"/>
<path d="M65.6981 23.7203V17.7857C65.6981 17.7042 65.7237 17.6378 65.775 17.5865C65.8293 17.5322 65.8957 17.505 65.9742 17.505H66.9882C67.0667 17.505 67.1316 17.5322 67.1829 17.5865C67.2372 17.6378 67.2643 17.7042 67.2643 17.7857V23.7203C67.2643 23.7988 67.2372 23.8652 67.1829 23.9195C67.1316 23.9708 67.0667 23.9964 66.9882 23.9964H65.9742C65.8957 23.9964 65.8293 23.9708 65.775 23.9195C65.7237 23.8652 65.6981 23.7988 65.6981 23.7203Z" fill="white"/>
</svg>
