<svg width="262" height="262" viewBox="0 0 262 262" fill="none" xmlns="http://www.w3.org/2000/svg">
<path d="M240.368 141.588L243.855 142.212L240.746 159.586L237.259 158.962L238.431 152.413L220.692 149.241L221.452 144.996L239.191 148.168L240.368 141.588Z" fill="url(#paint0_linear_1_393)"/>
<path d="M205.644 184.142L210.735 185.474L215.46 177.929L212.037 173.935L214.293 170.332L228.844 187.722L225.329 193.335L203.306 187.875L205.644 184.142ZM225.127 189.247L217.698 180.565L214.085 186.335L225.127 189.247Z" fill="url(#paint1_linear_1_393)"/>
<path d="M188.212 216.099C186.412 217.217 184.744 217.791 183.206 217.82C181.651 217.86 180.382 217.184 179.4 215.792C178.322 214.265 178.112 212.667 178.769 210.998C179.409 209.34 180.678 207.843 182.574 206.506L190.605 200.844L203.037 218.462L195.182 224C193.352 225.29 191.621 225.97 189.987 226.041C188.337 226.125 186.979 225.411 185.913 223.901C184.114 221.35 184.88 218.75 188.212 216.099ZM197.576 218.204L194.326 213.598L190.298 216.438C189.358 217.1 188.785 217.819 188.577 218.593C188.369 219.368 188.52 220.116 189.029 220.837C189.527 221.542 190.169 221.918 190.957 221.966C191.744 222.014 192.625 221.694 193.598 221.008L197.576 218.204ZM184.837 209.019C182.638 210.569 182.113 212.158 183.262 213.785C183.806 214.557 184.493 214.978 185.321 215.047C186.149 215.117 187.083 214.784 188.124 214.051L192.479 210.98L189.016 206.072L184.837 209.019Z" fill="url(#paint2_linear_1_393)"/>
<path d="M156.861 218.952L161.387 240.034L152.261 241.991C151.237 242.211 150.255 242.285 149.316 242.213C148.381 242.162 147.498 241.963 146.667 241.616C145.836 241.269 145.115 240.699 144.504 239.906C143.893 239.113 143.46 238.124 143.206 236.94C142.714 234.651 143.051 232.846 144.217 231.525C145.387 230.223 147.086 229.334 149.315 228.856L154.345 227.777L152.644 219.856L156.861 218.952ZM155.043 231.03L150.646 231.973C148.036 232.533 146.961 233.887 147.422 236.035C147.883 238.184 149.419 238.978 152.029 238.418L156.427 237.475L155.043 231.03Z" fill="url(#paint3_linear_1_393)"/>
<path d="M103.335 240.619L96.769 239.211L101.295 218.129L105.391 219.008L101.531 236.988L112.951 220.629L119.516 222.038L114.991 243.119L110.864 242.234L114.724 224.255L103.335 240.619Z" fill="url(#paint4_linear_1_393)"/>
<path d="M68.5239 202.965L66.8591 201.745L71.9049 194.864L75.1599 197.249L72.209 201.273L82.4709 208.792L85.4219 204.768L88.6769 207.153L83.6311 214.034L82.3142 213.069C79.6963 214.486 75.523 218.874 69.7943 226.235L57.8676 217.496L68.5239 202.965ZM72.0025 205.513L63.441 217.188L68.7335 221.066C71.0972 218.19 73.2871 215.759 75.3031 213.774C76.6975 212.428 77.9578 211.404 79.084 210.702L72.0025 205.513Z" fill="url(#paint5_linear_1_393)"/>
<path d="M49.6086 173.158L46.1133 177.089L50.6989 184.72L55.8126 183.482L58.0023 187.125L35.8988 192.205L32.4874 186.529L47.3397 169.383L49.6086 173.158ZM36.224 188.201L47.3337 185.519L43.8271 179.684L36.224 188.201Z" fill="url(#paint6_linear_1_393)"/>
<path d="M21.1972 135.167L17.6581 135.017L18.4074 117.383L21.9466 117.533L21.6641 124.18L39.6678 124.945L39.4847 129.253L21.481 128.489L21.1972 135.167Z" fill="#424446"/>
<path d="M43.9499 101.534L24.2172 92.8418L30.5544 78.4671L33.6553 79.833L29.0577 90.2616L34.1882 92.5215L37.7917 84.3477L40.7234 85.6391L37.1199 93.8129L42.5887 96.2218L47.3603 85.3985L50.4611 86.7644L43.9499 101.534Z" fill="#424446"/>
<path d="M47.9445 53.9067L59.1269 43.3608L73.9275 59.0411L70.7902 61.9999L58.4211 48.8956L53.2445 53.7776C53.6947 54.2845 54.3559 55.0299 55.2282 56.0138C56.5648 57.5196 57.5419 58.6446 58.1596 59.3887C58.7781 60.1038 59.5355 61.0409 60.4317 62.1998C61.3288 63.3297 61.9132 64.2181 62.185 64.865C62.4576 65.483 62.6983 66.2016 62.9069 67.021C63.1305 67.8263 63.1099 68.5374 62.8449 69.1542C62.58 69.771 62.1338 70.3753 61.5063 70.9671C60.9685 71.4743 60.38 71.9728 59.741 72.4625L57.3518 69.9313C57.7675 69.6238 58.1174 69.3363 58.4012 69.0686C58.6253 68.8572 58.7631 68.6143 58.8147 68.3399C58.8812 68.0514 58.8474 67.7163 58.7132 67.3348C58.5798 66.9243 58.4099 66.5199 58.2035 66.1218C57.9972 65.7236 57.6772 65.235 57.2436 64.656C56.81 64.077 56.3756 63.527 55.9403 63.006C55.5199 62.4709 54.9648 61.823 54.275 61.0622C53.6001 60.2873 52.9741 59.5793 52.397 58.938C51.8199 58.2967 51.1023 57.4915 50.2441 56.5225C49.386 55.5535 48.6194 54.6816 47.9445 53.9067Z" fill="#424446"/>
<path d="M90.9785 48.2591L83.4007 28.0723L98.1098 22.5555L99.3006 25.7277L88.6293 29.7301L90.5995 34.9787L98.9635 31.8417L100.089 34.8408L91.7254 37.9778L93.8255 43.5725L104.901 39.4186L106.091 42.5908L90.9785 48.2591Z" fill="#424446"/>
<path d="M143.667 39.8915L138.526 39.7129L131.981 30.2699L129.734 30.1918L129.414 39.3964L125.104 39.2467L125.853 17.6975L130.163 17.8472L129.848 26.8979L132.003 26.9727L138.721 18.1444L143.739 18.3187L135.372 28.4767L143.667 39.8915Z" fill="#424446"/>
<path d="M164.549 42.6747C163.812 40.087 164.187 37.2481 165.675 34.1582C167.163 31.0683 169.144 29.0132 171.618 27.993C174.101 26.9543 176.813 27.1426 179.756 28.5581C182.698 29.9736 184.538 31.9752 185.275 34.563C186.021 37.1322 185.65 39.9618 184.162 43.0517C182.674 46.1416 180.689 48.206 178.206 49.2447C175.732 50.2649 173.023 50.0673 170.081 48.6518C167.139 47.2363 165.295 45.244 164.549 42.6747ZM173.369 31.7408C171.819 32.545 170.55 33.9739 169.561 36.0277C168.572 38.0815 168.242 39.9737 168.571 41.7044C168.928 43.4255 169.939 44.6867 171.604 45.4879C173.288 46.298 174.905 46.301 176.455 45.4969C178.013 44.6742 179.287 43.236 180.276 41.1822C181.265 39.1284 181.59 37.2455 181.252 35.5333C180.923 33.8026 179.916 32.5322 178.232 31.7221C176.567 30.9208 174.946 30.9271 173.369 31.7408Z" fill="#424446"/>
<path d="M224.204 66.7226L228.761 72.6603L211.633 85.7575L209.138 82.5077L224.268 70.9044L206.062 78.5003L202.499 73.8577L214.529 58.2657L199.423 69.8503L196.91 66.576L214.02 53.4543L218.615 59.4409L206.328 74.6476L224.204 66.7226Z" fill="#424446"/>
<defs>
<linearGradient id="paint0_linear_1_393" x1="250.151" y1="138.813" x2="243.978" y2="167.336" gradientUnits="userSpaceOnUse">
<stop stop-color="#FAAF00"/>
<stop offset="1" stop-color="#FA6400"/>
</linearGradient>
<linearGradient id="paint1_linear_1_393" x1="239.728" y1="180.893" x2="221.282" y2="207.873" gradientUnits="userSpaceOnUse">
<stop stop-color="#FAAF00"/>
<stop offset="1" stop-color="#FA6400"/>
</linearGradient>
<linearGradient id="paint2_linear_1_393" x1="211.675" y1="219.226" x2="184.224" y2="236.973" gradientUnits="userSpaceOnUse">
<stop stop-color="#FAAF00"/>
<stop offset="1" stop-color="#FA6400"/>
</linearGradient>
<linearGradient id="paint3_linear_1_393" x1="168.869" y1="244.159" x2="137.809" y2="249.566" gradientUnits="userSpaceOnUse">
<stop stop-color="#FAAF00"/>
<stop offset="1" stop-color="#FA6400"/>
</linearGradient>
<linearGradient id="paint4_linear_1_393" x1="120.802" y1="250.097" x2="85.7971" y2="240.919" gradientUnits="userSpaceOnUse">
<stop stop-color="#FAAF00"/>
<stop offset="1" stop-color="#FA6400"/>
</linearGradient>
<linearGradient id="paint5_linear_1_393" x1="73.2003" y1="235.675" x2="47.6466" y2="215.291" gradientUnits="userSpaceOnUse">
<stop stop-color="#FAAF00"/>
<stop offset="1" stop-color="#FA6400"/>
</linearGradient>
<linearGradient id="paint6_linear_1_393" x1="37.054" y1="204.998" x2="21.3798" y2="176.32" gradientUnits="userSpaceOnUse">
<stop stop-color="#FAAF00"/>
<stop offset="1" stop-color="#FA6400"/>
</linearGradient>
</defs>
</svg>
