<svg width="96" height="96" viewBox="0 0 96 96" fill="none" xmlns="http://www.w3.org/2000/svg">
<circle cx="48" cy="48" r="48" fill="url(#paint0_linear_18_531)"/>
<path d="M31.128 58.28C29.464 56.2107 28.632 53.384 28.632 49.8C28.632 46.216 29.464 43.3893 31.128 41.32C32.8133 39.2507 35.1493 38.216 38.136 38.216C41.1013 38.216 43.416 39.2507 45.08 41.32C46.7653 43.3893 47.608 46.216 47.608 49.8C47.608 53.384 46.7653 56.2107 45.08 58.28C43.416 60.3493 41.1013 61.384 38.136 61.384C35.1493 61.384 32.8133 60.3493 31.128 58.28ZM33.304 43.08C32.152 44.7227 31.576 46.9627 31.576 49.8C31.576 52.6373 32.152 54.8773 33.304 56.52C34.456 58.1627 36.0667 58.984 38.136 58.984C40.2053 58.984 41.8053 58.1733 42.936 56.552C44.088 54.9093 44.664 52.6587 44.664 49.8C44.664 46.9413 44.088 44.7013 42.936 43.08C41.8053 41.4373 40.2053 40.616 38.136 40.616C36.0667 40.616 34.456 41.4373 33.304 43.08ZM59.426 47.496C62.242 47.496 64.3967 48.0827 65.89 49.256C67.3833 50.408 68.13 52.0613 68.13 54.216C68.13 56.4987 67.2873 58.2693 65.602 59.528C63.9167 60.7653 61.698 61.384 58.946 61.384C56.4073 61.384 54.338 60.8293 52.738 59.72C51.138 58.5893 50.2207 56.9147 49.986 54.696L52.802 54.504C52.994 56.0187 53.634 57.1493 54.722 57.896C55.8313 58.6213 57.2393 58.984 58.946 58.984C60.802 58.984 62.306 58.568 63.458 57.736C64.61 56.8827 65.186 55.7093 65.186 54.216C65.186 52.808 64.6633 51.688 63.618 50.856C62.5727 50.024 61.058 49.608 59.074 49.608C57.858 49.608 56.5993 49.736 55.298 49.992V47.944L63.458 41H51.138V38.6H67.458V40.776L59.138 47.496H59.426Z" fill="white"/>
<defs>
<linearGradient id="paint0_linear_18_531" x1="3.69231" y1="21" x2="100.66" y2="27.6073" gradientUnits="userSpaceOnUse">
<stop stop-color="#D1A300"/>
<stop offset="1" stop-color="#FA6400"/>
</linearGradient>
</defs>
</svg>
