<svg width="96" height="96" viewBox="0 0 96 96" fill="none" xmlns="http://www.w3.org/2000/svg">
<circle cx="48" cy="48" r="48" fill="url(#paint0_linear_18_538)"/>
<path d="M30.128 58.28C28.464 56.2107 27.632 53.384 27.632 49.8C27.632 46.216 28.464 43.3893 30.128 41.32C31.8133 39.2507 34.1493 38.216 37.136 38.216C40.1013 38.216 42.416 39.2507 44.08 41.32C45.7653 43.3893 46.608 46.216 46.608 49.8C46.608 53.384 45.7653 56.2107 44.08 58.28C42.416 60.3493 40.1013 61.384 37.136 61.384C34.1493 61.384 31.8133 60.3493 30.128 58.28ZM32.304 43.08C31.152 44.7227 30.576 46.9627 30.576 49.8C30.576 52.6373 31.152 54.8773 32.304 56.52C33.456 58.1627 35.0667 58.984 37.136 58.984C39.2053 58.984 40.8053 58.1733 41.936 56.552C43.088 54.9093 43.664 52.6587 43.664 49.8C43.664 46.9413 43.088 44.7013 41.936 43.08C40.8053 41.4373 39.2053 40.616 37.136 40.616C35.0667 40.616 33.456 41.4373 32.304 43.08ZM69.178 53.352V55.752H65.21V61H62.266V55.752H49.114V53.544L60.442 38.6H65.21V53.352H69.178ZM52.25 53.352H62.266V40.136L52.25 53.352Z" fill="white"/>
<defs>
<linearGradient id="paint0_linear_18_538" x1="3.69231" y1="21" x2="100.66" y2="27.6073" gradientUnits="userSpaceOnUse">
<stop stop-color="#D1A300"/>
<stop offset="1" stop-color="#FA6400"/>
</linearGradient>
</defs>
</svg>
