<svg width="96" height="96" viewBox="0 0 96 96" fill="none" xmlns="http://www.w3.org/2000/svg">
<circle cx="48" cy="48" r="48" fill="url(#paint0_linear_18_545)"/>
<path d="M31.128 58.28C29.464 56.2107 28.632 53.384 28.632 49.8C28.632 46.216 29.464 43.3893 31.128 41.32C32.8133 39.2507 35.1493 38.216 38.136 38.216C41.1013 38.216 43.416 39.2507 45.08 41.32C46.7653 43.3893 47.608 46.216 47.608 49.8C47.608 53.384 46.7653 56.2107 45.08 58.28C43.416 60.3493 41.1013 61.384 38.136 61.384C35.1493 61.384 32.8133 60.3493 31.128 58.28ZM33.304 43.08C32.152 44.7227 31.576 46.9627 31.576 49.8C31.576 52.6373 32.152 54.8773 33.304 56.52C34.456 58.1627 36.0667 58.984 38.136 58.984C40.2053 58.984 41.8053 58.1733 42.936 56.552C44.088 54.9093 44.664 52.6587 44.664 49.8C44.664 46.9413 44.088 44.7013 42.936 43.08C41.8053 41.4373 40.2053 40.616 38.136 40.616C36.0667 40.616 34.456 41.4373 33.304 43.08ZM60.162 46.216C62.6153 46.216 64.5993 46.8773 66.114 48.2C67.6287 49.5013 68.386 51.3253 68.386 53.672C68.386 56.104 67.554 58.0027 65.89 59.368C64.2473 60.712 62.05 61.384 59.298 61.384C56.866 61.384 54.818 60.8507 53.154 59.784C51.49 58.696 50.4873 57.1707 50.146 55.208L53.026 55.016C53.3033 56.296 54.0073 57.2773 55.138 57.96C56.29 58.6427 57.666 58.984 59.266 58.984C61.0367 58.984 62.5087 58.536 63.682 57.64C64.8553 56.7227 65.442 55.4 65.442 53.672C65.442 51.944 64.866 50.6427 63.714 49.768C62.562 48.8933 61.1113 48.456 59.362 48.456C58.1247 48.456 56.9727 48.6693 55.906 49.096C54.8393 49.5227 53.986 50.152 53.346 50.984L50.754 50.76L51.842 38.6H67.01V41H54.018L53.346 48.776C54.9887 47.0693 57.2607 46.216 60.162 46.216Z" fill="white"/>
<defs>
<linearGradient id="paint0_linear_18_545" x1="3.69231" y1="21" x2="100.66" y2="27.6073" gradientUnits="userSpaceOnUse">
<stop stop-color="#D1A300"/>
<stop offset="1" stop-color="#FA6400"/>
</linearGradient>
</defs>
</svg>
