<svg width="96" height="96" viewBox="0 0 96 96" fill="none" xmlns="http://www.w3.org/2000/svg">
<circle cx="48" cy="48" r="48" fill="white"/>
<mask id="path-2-outside-1_88_122" maskUnits="userSpaceOnUse" x="28" y="37" width="41" height="25" fill="black">
<rect fill="white" x="28" y="37" width="41" height="25"/>
<path d="M31.128 58.28C29.464 56.2107 28.632 53.384 28.632 49.8C28.632 46.216 29.464 43.3893 31.128 41.32C32.8133 39.2507 35.1493 38.216 38.136 38.216C41.1013 38.216 43.416 39.2507 45.08 41.32C46.7653 43.3893 47.608 46.216 47.608 49.8C47.608 53.384 46.7653 56.2107 45.08 58.28C43.416 60.3493 41.1013 61.384 38.136 61.384C35.1493 61.384 32.8133 60.3493 31.128 58.28ZM33.304 43.08C32.152 44.7227 31.576 46.9627 31.576 49.8C31.576 52.6373 32.152 54.8773 33.304 56.52C34.456 58.1627 36.0667 58.984 38.136 58.984C40.2053 58.984 41.8053 58.1733 42.936 56.552C44.088 54.9093 44.664 52.6587 44.664 49.8C44.664 46.9413 44.088 44.7013 42.936 43.08C41.8053 41.4373 40.2053 40.616 38.136 40.616C36.0667 40.616 34.456 41.4373 33.304 43.08ZM60.162 46.216C62.6153 46.216 64.5993 46.8773 66.114 48.2C67.6287 49.5013 68.386 51.3253 68.386 53.672C68.386 56.104 67.554 58.0027 65.89 59.368C64.2473 60.712 62.05 61.384 59.298 61.384C56.866 61.384 54.818 60.8507 53.154 59.784C51.49 58.696 50.4873 57.1707 50.146 55.208L53.026 55.016C53.3033 56.296 54.0073 57.2773 55.138 57.96C56.29 58.6427 57.666 58.984 59.266 58.984C61.0367 58.984 62.5087 58.536 63.682 57.64C64.8553 56.7227 65.442 55.4 65.442 53.672C65.442 51.944 64.866 50.6427 63.714 49.768C62.562 48.8933 61.1113 48.456 59.362 48.456C58.1247 48.456 56.9727 48.6693 55.906 49.096C54.8393 49.5227 53.986 50.152 53.346 50.984L50.754 50.76L51.842 38.6H67.01V41H54.018L53.346 48.776C54.9887 47.0693 57.2607 46.216 60.162 46.216Z"/>
</mask>
<path d="M31.128 58.28C29.464 56.2107 28.632 53.384 28.632 49.8C28.632 46.216 29.464 43.3893 31.128 41.32C32.8133 39.2507 35.1493 38.216 38.136 38.216C41.1013 38.216 43.416 39.2507 45.08 41.32C46.7653 43.3893 47.608 46.216 47.608 49.8C47.608 53.384 46.7653 56.2107 45.08 58.28C43.416 60.3493 41.1013 61.384 38.136 61.384C35.1493 61.384 32.8133 60.3493 31.128 58.28ZM33.304 43.08C32.152 44.7227 31.576 46.9627 31.576 49.8C31.576 52.6373 32.152 54.8773 33.304 56.52C34.456 58.1627 36.0667 58.984 38.136 58.984C40.2053 58.984 41.8053 58.1733 42.936 56.552C44.088 54.9093 44.664 52.6587 44.664 49.8C44.664 46.9413 44.088 44.7013 42.936 43.08C41.8053 41.4373 40.2053 40.616 38.136 40.616C36.0667 40.616 34.456 41.4373 33.304 43.08ZM60.162 46.216C62.6153 46.216 64.5993 46.8773 66.114 48.2C67.6287 49.5013 68.386 51.3253 68.386 53.672C68.386 56.104 67.554 58.0027 65.89 59.368C64.2473 60.712 62.05 61.384 59.298 61.384C56.866 61.384 54.818 60.8507 53.154 59.784C51.49 58.696 50.4873 57.1707 50.146 55.208L53.026 55.016C53.3033 56.296 54.0073 57.2773 55.138 57.96C56.29 58.6427 57.666 58.984 59.266 58.984C61.0367 58.984 62.5087 58.536 63.682 57.64C64.8553 56.7227 65.442 55.4 65.442 53.672C65.442 51.944 64.866 50.6427 63.714 49.768C62.562 48.8933 61.1113 48.456 59.362 48.456C58.1247 48.456 56.9727 48.6693 55.906 49.096C54.8393 49.5227 53.986 50.152 53.346 50.984L50.754 50.76L51.842 38.6H67.01V41H54.018L53.346 48.776C54.9887 47.0693 57.2607 46.216 60.162 46.216Z" fill="#424446"/>
<path d="M31.128 58.28L30.7383 58.5933L30.7403 58.5957L31.128 58.28ZM31.128 41.32L30.7403 41.0042L30.7384 41.0067L31.128 41.32ZM45.08 41.32L44.6903 41.6333L44.6923 41.6357L45.08 41.32ZM45.08 58.28L44.6923 57.9642L44.6904 57.9667L45.08 58.28ZM33.304 43.08L33.7134 43.3671L33.7134 43.3671L33.304 43.08ZM33.304 56.52L32.8946 56.8071L32.8946 56.8071L33.304 56.52ZM42.936 56.552L42.5266 56.2649L42.5259 56.266L42.936 56.552ZM42.936 43.08L42.5241 43.3635L42.5284 43.3696L42.936 43.08ZM31.5176 57.9667C29.9465 56.0128 29.132 53.3098 29.132 49.8H28.132C28.132 53.4582 28.9815 56.4085 30.7384 58.5933L31.5176 57.9667ZM29.132 49.8C29.132 46.2902 29.9465 43.5872 31.5176 41.6333L30.7384 41.0067C28.9815 43.1915 28.132 46.1418 28.132 49.8H29.132ZM31.5157 41.6357C33.094 39.6979 35.2794 38.716 38.136 38.716V37.716C35.0192 37.716 32.5327 38.8035 30.7403 41.0043L31.5157 41.6357ZM38.136 38.716C40.9699 38.716 43.1332 39.6968 44.6904 41.6333L45.4696 41.0067C43.6988 38.8045 41.2327 37.716 38.136 37.716V38.716ZM44.6923 41.6357C46.2835 43.5894 47.108 46.2916 47.108 49.8H48.108C48.108 46.1404 47.2472 43.1892 45.4677 41.0043L44.6923 41.6357ZM47.108 49.8C47.108 53.3084 46.2835 56.0106 44.6923 57.9643L45.4677 58.5957C47.2472 56.4108 48.108 53.4596 48.108 49.8H47.108ZM44.6904 57.9667C43.1332 59.9032 40.9699 60.884 38.136 60.884V61.884C41.2327 61.884 43.6988 60.7955 45.4696 58.5933L44.6904 57.9667ZM38.136 60.884C35.2794 60.884 33.094 59.9021 31.5157 57.9643L30.7403 58.5957C32.5327 60.7965 35.0192 61.884 38.136 61.884V60.884ZM32.8946 42.7929C31.6638 44.548 31.076 46.901 31.076 49.8H32.076C32.076 47.0244 32.6402 44.8973 33.7134 43.3671L32.8946 42.7929ZM31.076 49.8C31.076 52.699 31.6638 55.052 32.8946 56.8071L33.7134 56.2329C32.6402 54.7027 32.076 52.5756 32.076 49.8H31.076ZM32.8946 56.8071C34.1437 58.5881 35.9097 59.484 38.136 59.484V58.484C36.2236 58.484 34.7683 57.7372 33.7134 56.2329L32.8946 56.8071ZM38.136 59.484C40.3597 59.484 42.1169 58.6007 43.3461 56.838L42.5259 56.266C41.4938 57.746 40.051 58.484 38.136 58.484V59.484ZM43.3454 56.8391C44.5766 55.0835 45.164 52.7194 45.164 49.8H44.164C44.164 52.5979 43.5994 54.7352 42.5266 56.2649L43.3454 56.8391ZM45.164 49.8C45.164 46.8811 44.5768 44.526 43.3436 42.7904L42.5284 43.3696C43.5992 44.8766 44.164 47.0015 44.164 49.8H45.164ZM43.3479 42.7965C42.1198 41.0123 40.3625 40.116 38.136 40.116V41.116C40.0482 41.116 41.4909 41.8623 42.5241 43.3635L43.3479 42.7965ZM38.136 40.116C35.9097 40.116 34.1437 41.0119 32.8946 42.7929L33.7134 43.3671C34.7683 41.8628 36.2236 41.116 38.136 41.116V40.116ZM66.114 48.2L65.7851 48.5766L65.7882 48.5793L66.114 48.2ZM65.89 59.368L66.2066 59.755L66.2072 59.7545L65.89 59.368ZM53.154 59.784L52.8804 60.2025L52.8842 60.2049L53.154 59.784ZM50.146 55.208L50.1127 54.7091L49.5582 54.7461L49.6534 55.2937L50.146 55.208ZM53.026 55.016L53.5147 54.9101L53.4233 54.4884L52.9927 54.5171L53.026 55.016ZM55.138 57.96L54.8796 58.388L54.8831 58.3901L55.138 57.96ZM63.682 57.64L63.9855 58.0374L63.99 58.0339L63.682 57.64ZM63.714 49.768L63.4116 50.1662L63.4116 50.1662L63.714 49.768ZM55.906 49.096L56.0917 49.5602L56.0917 49.5602L55.906 49.096ZM53.346 50.984L53.303 51.4821L53.5755 51.5057L53.7423 51.2889L53.346 50.984ZM50.754 50.76L50.256 50.7154L50.2113 51.215L50.711 51.2581L50.754 50.76ZM51.842 38.6V38.1H51.3847L51.344 38.5554L51.842 38.6ZM67.01 38.6H67.51V38.1H67.01V38.6ZM67.01 41V41.5H67.51V41H67.01ZM54.018 41V40.5H53.5593L53.5199 40.957L54.018 41ZM53.346 48.776L52.8479 48.7329L52.7262 50.141L53.7062 49.1227L53.346 48.776ZM60.162 46.716C62.5222 46.716 64.3805 47.35 65.7851 48.5766L66.4429 47.8234C64.8182 46.4046 62.7085 45.716 60.162 45.716V46.716ZM65.7882 48.5793C67.1725 49.7686 67.886 51.4429 67.886 53.672H68.886C68.886 51.2078 68.0848 49.234 66.4398 47.8207L65.7882 48.5793ZM67.886 53.672C67.886 55.9762 67.1052 57.7242 65.5728 58.9815L66.2072 59.7545C68.0028 58.2812 68.886 56.2318 68.886 53.672H67.886ZM65.5734 58.981C64.0436 60.2326 61.9693 60.884 59.298 60.884V61.884C62.1307 61.884 64.451 61.1914 66.2066 59.755L65.5734 58.981ZM59.298 60.884C56.9396 60.884 54.9905 60.3673 53.4238 59.3631L52.8842 60.2049C54.6455 61.334 56.7925 61.884 59.298 61.884V60.884ZM53.4276 59.3655C51.8798 58.3535 50.9563 56.9488 50.6386 55.1223L49.6534 55.2937C50.0184 57.3925 51.1002 59.0385 52.8804 60.2025L53.4276 59.3655ZM50.1793 55.7069L53.0593 55.5149L52.9927 54.5171L50.1127 54.7091L50.1793 55.7069ZM52.5373 55.1219C52.8441 56.5377 53.6322 57.6349 54.8796 58.388L55.3964 57.532C54.3824 56.9197 53.7626 56.0543 53.5147 54.9101L52.5373 55.1219ZM54.8831 58.3901C56.1261 59.1267 57.5939 59.484 59.266 59.484V58.484C57.7381 58.484 56.4539 58.1586 55.3929 57.5299L54.8831 58.3901ZM59.266 59.484C61.1238 59.484 62.7086 59.0124 63.9855 58.0374L63.3785 57.2426C62.3087 58.0596 60.9495 58.484 59.266 58.484V59.484ZM63.99 58.0339C65.3048 57.0059 65.942 55.5261 65.942 53.672H64.942C64.942 55.2739 64.4058 56.4394 63.374 57.2461L63.99 58.0339ZM65.942 53.672C65.942 51.8218 65.3178 50.3579 64.0164 49.3698L63.4116 50.1662C64.4142 50.9274 64.942 52.0662 64.942 53.672H65.942ZM64.0164 49.3698C62.7604 48.4162 61.197 47.956 59.362 47.956V48.956C61.0256 48.956 62.3636 49.3705 63.4116 50.1662L64.0164 49.3698ZM59.362 47.956C58.066 47.956 56.8505 48.1797 55.7203 48.6318L56.0917 49.5602C57.0949 49.159 58.1833 48.956 59.362 48.956V47.956ZM55.7203 48.6318C54.5785 49.0885 53.6494 49.7695 52.9497 50.6791L53.7423 51.2889C54.3226 50.5345 55.1001 49.9569 56.0917 49.5602L55.7203 48.6318ZM53.389 50.4859L50.797 50.2619L50.711 51.2581L53.303 51.4821L53.389 50.4859ZM51.252 50.8046L52.34 38.6446L51.344 38.5554L50.256 50.7154L51.252 50.8046ZM51.842 39.1H67.01V38.1H51.842V39.1ZM66.51 38.6V41H67.51V38.6H66.51ZM67.01 40.5H54.018V41.5H67.01V40.5ZM53.5199 40.957L52.8479 48.7329L53.8441 48.819L54.5161 41.043L53.5199 40.957ZM53.7062 49.1227C55.2342 47.5353 57.3639 46.716 60.162 46.716V45.716C57.1574 45.716 54.7432 46.6034 52.9858 48.4293L53.7062 49.1227Z" fill="#424446" mask="url(#path-2-outside-1_88_122)"/>
</svg>
