<svg width="96" height="96" viewBox="0 0 96 96" fill="none" xmlns="http://www.w3.org/2000/svg">
<circle cx="48" cy="48" r="48" fill="url(#paint0_linear_18_506)"/>
<path d="M34.128 58.28C32.464 56.2107 31.632 53.384 31.632 49.8C31.632 46.216 32.464 43.3893 34.128 41.32C35.8133 39.2507 38.1493 38.216 41.136 38.216C44.1013 38.216 46.416 39.2507 48.08 41.32C49.7653 43.3893 50.608 46.216 50.608 49.8C50.608 53.384 49.7653 56.2107 48.08 58.28C46.416 60.3493 44.1013 61.384 41.136 61.384C38.1493 61.384 35.8133 60.3493 34.128 58.28ZM36.304 43.08C35.152 44.7227 34.576 46.9627 34.576 49.8C34.576 52.6373 35.152 54.8773 36.304 56.52C37.456 58.1627 39.0667 58.984 41.136 58.984C43.2053 58.984 44.8053 58.1733 45.936 56.552C47.088 54.9093 47.664 52.6587 47.664 49.8C47.664 46.9413 47.088 44.7013 45.936 43.08C44.8053 41.4373 43.2053 40.616 41.136 40.616C39.0667 40.616 37.456 41.4373 36.304 43.08ZM59.418 38.6H61.818V61H58.842V41.864L53.402 45.256V42.344L59.418 38.6Z" fill="white"/>
<defs>
<linearGradient id="paint0_linear_18_506" x1="3.69231" y1="21" x2="100.66" y2="27.6073" gradientUnits="userSpaceOnUse">
<stop stop-color="#D1A300"/>
<stop offset="1" stop-color="#FA6400"/>
</linearGradient>
</defs>
</svg>
