<svg width="96" height="96" viewBox="0 0 96 96" fill="none" xmlns="http://www.w3.org/2000/svg">
<circle cx="48" cy="48" r="48" fill="url(#paint0_linear_18_560)"/>
<path d="M30.128 58.28C28.464 56.2107 27.632 53.384 27.632 49.8C27.632 46.216 28.464 43.3893 30.128 41.32C31.8133 39.2507 34.1493 38.216 37.136 38.216C40.1013 38.216 42.416 39.2507 44.08 41.32C45.7653 43.3893 46.608 46.216 46.608 49.8C46.608 53.384 45.7653 56.2107 44.08 58.28C42.416 60.3493 40.1013 61.384 37.136 61.384C34.1493 61.384 31.8133 60.3493 30.128 58.28ZM32.304 43.08C31.152 44.7227 30.576 46.9627 30.576 49.8C30.576 52.6373 31.152 54.8773 32.304 56.52C33.456 58.1627 35.0667 58.984 37.136 58.984C39.2053 58.984 40.8053 58.1733 41.936 56.552C43.088 54.9093 43.664 52.6587 43.664 49.8C43.664 46.9413 43.088 44.7013 41.936 43.08C40.8053 41.4373 39.2053 40.616 37.136 40.616C35.0667 40.616 33.456 41.4373 32.304 43.08ZM52.986 58.6H66.426V61H48.826V58.792L58.682 50.472C59.6633 49.576 60.3887 48.8933 60.858 48.424C61.3487 47.9333 61.8073 47.3147 62.234 46.568C62.6607 45.8 62.874 45.0427 62.874 44.296C62.874 43.08 62.426 42.1627 61.53 41.544C60.634 40.9253 59.4713 40.616 58.042 40.616C56.3993 40.616 55.066 41.0747 54.042 41.992C53.018 42.888 52.4207 44.264 52.25 46.12L49.434 45.928C49.626 43.3467 50.5007 41.416 52.058 40.136C53.6153 38.856 55.6207 38.216 58.074 38.216C60.378 38.216 62.2447 38.7387 63.674 39.784C65.1033 40.8293 65.818 42.312 65.818 44.232C65.818 45.5547 65.4233 46.792 64.634 47.944C63.866 49.0747 62.618 50.3867 60.89 51.88L52.986 58.6Z" fill="white"/>
<defs>
<linearGradient id="paint0_linear_18_560" x1="3.69231" y1="21" x2="100.66" y2="27.6073" gradientUnits="userSpaceOnUse">
<stop stop-color="#D1A300"/>
<stop offset="1" stop-color="#FA6400"/>
</linearGradient>
</defs>
</svg>
