<svg width="18" height="19" viewBox="0 0 18 19" fill="none" xmlns="http://www.w3.org/2000/svg">
<path d="M15.6892 3.97609L11.2245 16.0361C10.9425 16.7981 10.1302 17.1896 9.41097 16.9098C9.23285 16.8393 9.07127 16.7326 8.93639 16.5966C8.80151 16.4605 8.69624 16.298 8.62722 16.1193L7.21197 12.5418C6.94601 11.8551 6.41878 11.3017 5.74572 11.0028L2.33922 9.51709C1.63047 9.20734 1.30797 8.34859 1.61772 7.59859C1.69098 7.41749 1.79943 7.25273 1.93679 7.11382C2.07416 6.97491 2.2377 6.86463 2.41797 6.78934L13.905 2.10184C14.6302 1.80559 15.435 2.17759 15.7012 2.93359C15.819 3.26809 15.8137 3.63859 15.6892 3.97609Z" fill="#FF6A00"/>
</svg>
