<svg width="175" height="37" viewBox="0 0 175 37" fill="none" xmlns="http://www.w3.org/2000/svg">
<path d="M25.7523 32.6471C25.9949 34.0819 26.1176 35.5379 26.1176 37H33.3726C35.3759 37 37 35.3759 37 33.3726V3.62745C37 1.62407 35.3759 0 33.3726 0H3.62745C1.62407 0 0 1.62406 0 3.62745V10.8824C1.46209 10.8824 2.91808 11.0051 4.35294 11.2477V4.35294H32.6471V32.6471H25.7523Z" fill="#FF6A00"/>
<path d="M29.0196 7.98039H7.98039V12.1314C8.66063 12.3497 9.33267 12.5962 9.9948 12.8704C13.1635 14.183 16.0427 16.1068 18.468 18.532C20.8932 20.9573 22.817 23.8365 24.1295 27.0052C24.4038 27.6673 24.6502 28.3394 24.8685 29.0196H29.0196V7.98039Z" fill="#FF6A00"/>
<path d="M0 16.6862C0 15.482 0.978437 14.4949 2.17696 14.6114C4.38429 14.8261 6.55182 15.3664 8.60811 16.2181C11.3372 17.3486 13.8169 19.0055 15.9057 21.0942C17.9945 23.183 19.6514 25.6627 20.7818 28.3918C21.6336 30.4481 22.1739 32.6157 22.3885 34.823C22.505 36.0215 21.5179 36.9999 20.3137 36.9999C19.1095 36.9999 18.1469 36.0203 18.0024 34.8248C17.805 33.1907 17.3855 31.5876 16.753 30.0606C15.8418 27.8606 14.5061 25.8616 12.8222 24.1777C11.1384 22.4939 9.13938 21.1582 6.93934 20.2469C5.41235 19.6144 3.80928 19.1949 2.17513 18.9975C0.979642 18.8531 0 17.8904 0 16.6862Z" fill="#424446"/>
<path d="M0 24.3039C0 23.0997 0.981307 22.1072 2.17257 22.283C3.37883 22.4611 4.56136 22.7872 5.69297 23.2559C7.49786 24.0035 9.13782 25.0993 10.5192 26.4807C11.9006 27.8621 12.9964 29.5021 13.744 31.307C14.2128 32.4386 14.5389 33.6211 14.7169 34.8274C14.8928 36.0187 13.9003 37 12.6961 37C11.4919 37 10.5384 36.0136 10.2905 34.8352C10.157 34.2004 9.96467 33.5779 9.71526 32.9758C9.18679 31.6999 8.41221 30.5407 7.43574 29.5642C6.45926 28.5878 5.30002 27.8132 4.02419 27.2847C3.42206 27.0353 2.79952 26.843 2.16478 26.7095C0.986396 26.4616 0 25.5081 0 24.3039Z" fill="#424446"/>
<path d="M0 31.9705C0 31.1421 0.680187 30.4534 1.48685 30.6421C1.83161 30.7227 2.17005 30.8314 2.4987 30.9676C3.18202 31.2506 3.81149 31.6474 4.36071 32.1402C4.44821 32.2187 4.53367 32.2996 4.61699 32.383C4.70031 32.4663 4.78126 32.5517 4.85977 32.6392C5.3526 33.1885 5.74935 33.8179 6.03239 34.5013C6.16852 34.8299 6.27724 35.1683 6.35787 35.5131C6.54651 36.3198 5.85784 37 5.02941 37H1.5C0.671573 37 0 36.3284 0 35.5V31.9705Z" fill="#424446"/>
<path d="M65.1974 2.09289V7.20802e-07L48.25 0V2.09289L55.6184 2.09289V14.9991H57.8289V2.09289L65.1974 2.09289Z" fill="#FF6A00"/>
<path fill-rule="evenodd" clip-rule="evenodd" d="M71.8289 0C69.1838 0 67.0395 2.08243 67.0395 4.65123V14.9991H69.25V10.8214H80.3026V14.9991H82.5132V4.65124C82.5132 2.08243 80.3688 0 77.7237 0H71.8289ZM80.3026 8.7325V4.65124C80.3026 3.26803 79.148 2.14672 77.7237 2.14672H71.8289C70.4046 2.14672 69.25 3.26803 69.25 4.65123V8.7325H80.3026Z" fill="#FF6A00"/>
<path fill-rule="evenodd" clip-rule="evenodd" d="M95.4229 4.67171e-07C97.8563 5.69859e-07 99.8289 1.95766 99.8289 4.37256C99.8289 5.66452 99.2643 6.82561 98.3666 7.62608C99.2623 8.39597 99.8289 9.53292 99.8289 10.8012C99.8289 13.1201 97.9347 15 95.598 15H84.3553V0L95.4229 4.67171e-07ZM86.5144 2.14272V6.60239L95.4247 6.60238C96.6648 6.60143 97.6698 5.60346 97.6698 4.37256C97.6698 3.14105 96.6639 2.14272 95.4229 2.14272L86.5144 2.14272ZM86.5144 8.74511V12.8573H95.598C96.7422 12.8573 97.6698 11.9367 97.6698 10.8012C97.6698 9.66565 96.7422 8.74511 95.598 8.74511H86.5144Z" fill="#FF6A00"/>
<path fill-rule="evenodd" clip-rule="evenodd" d="M117.145 4.65123C117.145 2.08243 115.05 5.65799e-07 112.467 4.56505e-07L101.671 0V14.9991H103.83V10.5021H112.467C115.05 10.5021 117.145 8.41971 117.145 5.8509V4.65123ZM103.83 8.35541H112.467C113.858 8.35541 114.986 7.23411 114.986 5.8509V4.65123C114.986 3.26803 113.858 2.14672 112.467 2.14672L103.83 2.14672V8.35541Z" fill="#FF6A00"/>
<path d="M121.197 9.14832e-08V11.5109V14.9991H118.987V0L121.197 9.14832e-08Z" fill="#FF6A00"/>
<path d="M134.461 9.14832e-08V14.9991H132.25V3.48815V0L134.461 9.14832e-08Z" fill="#FF6A00"/>
<path d="M121.197 14.9991L132.25 3.48815V0L121.197 11.5109V14.9991Z" fill="#FF6A00"/>
<path fill-rule="evenodd" clip-rule="evenodd" d="M143.671 0C141.026 0 138.882 2.08243 138.882 4.65124V12.9102H136.303V14.9991L156.934 14.9991V12.9102H154.355V0H143.671ZM152.145 12.9102V2.14673H143.671C142.247 2.14673 141.092 3.26803 141.092 4.65124V12.9102L152.145 12.9102Z" fill="#FF6A00"/>
<path fill-rule="evenodd" clip-rule="evenodd" d="M163.566 0C160.921 0 158.776 2.08243 158.776 4.65123V14.9991H160.987V10.8214H172.039V14.9991H174.25V4.65124C174.25 2.08243 172.106 0 169.461 0H163.566ZM172.039 8.7325V4.65124C172.039 3.26803 170.885 2.14672 169.461 2.14672H163.566C162.141 2.14672 160.987 3.26803 160.987 4.65123V8.7325H172.039Z" fill="#FF6A00"/>
<path d="M65.1974 24.093V22L48.25 22V24.093L55.6184 24.093V37H57.8289V24.093L65.1974 24.093Z" fill="#424446"/>
<path d="M67.4079 37H83.6184V34.907H69.6698V30.3721L80.9795 30.3721V28.2791L69.6698 28.2791V24.093L83.6184 24.093V22H67.4079V37Z" fill="#424446"/>
<path d="M90.6184 22C87.9733 22 85.8289 24.0787 85.8289 26.6429V37H88.0395V26.6429C88.0395 25.2621 89.1941 24.1429 90.6184 24.1429H99.0921V37H101.303V22H90.6184Z" fill="#424446"/>
<path d="M103.513 37H119.724V34.907H105.775V30.3721L117.085 30.3721V28.2791L105.775 28.2791V24.093L119.724 24.093V22H103.513V37Z" fill="#424446"/>
<path d="M136.671 23.4727L130.033 29.4477V29.5523L136.671 35.5273L135.035 37L127.625 30.3308L124.248 30.3308V36.926H121.934V22H124.248V28.2481H128.093L135.035 22L136.671 23.4727Z" fill="#424446"/>
<path fill-rule="evenodd" clip-rule="evenodd" d="M143.671 22C141.026 22 138.882 24.0787 138.882 26.6429V32.3571C138.882 34.9213 141.026 37 143.671 37H149.566C152.211 37 154.355 34.9213 154.355 32.3571V26.6429C154.355 24.0787 152.211 22 149.566 22H143.671ZM144.039 24.1421C142.412 24.1421 141.092 25.4213 141.092 26.9992V31.9992C141.092 33.5772 142.412 34.8564 144.039 34.8564H149.197C150.825 34.8564 152.145 33.5772 152.145 31.9992V26.9992C152.145 25.4213 150.825 24.1421 149.197 24.1421H144.039Z" fill="#424446"/>
<path d="M174.25 22V37H172.039V25.5251L165.408 33.8143L158.776 25.5643V37H156.566V22L158.776 22V22.1085L165.408 30.3721L172.039 22.059V22L174.25 22Z" fill="#424446"/>
</svg>
