<svg width="240" height="50" viewBox="0 0 240 50" fill="none" xmlns="http://www.w3.org/2000/svg">
<path d="M34.8005 44.1176C35.1282 46.0567 35.2941 48.0242 35.2941 50H45.098C47.8053 50 50 47.8053 50 45.098V4.90196C50 2.19468 47.8053 0 45.098 0H4.90196C2.19468 0 0 2.19468 0 4.90196V14.7059C1.9758 14.7059 3.94335 14.8718 5.88235 15.1995V5.88235H44.1176V44.1176H34.8005Z" fill="white"/>
<path d="M39.2157 10.7843H10.7843V16.3938C11.7036 16.6888 12.6117 17.0219 13.5065 17.3925C17.7886 19.1662 21.6793 21.7659 24.9567 25.0433C28.2341 28.3206 30.8338 32.2115 32.6075 36.4935C32.9781 37.3883 33.3111 38.2965 33.6061 39.2157H39.2157V10.7843Z" fill="white"/>
<path d="M0 19.6018C3.99184 19.6018 7.9446 20.3881 11.6326 21.9157C15.3206 23.4433 18.6716 25.6823 21.4942 28.505C24.3169 31.3277 26.5559 34.6786 28.0835 38.3666C29.6112 42.0546 30.3974 46.0074 30.3974 49.9992H24.5046C24.5046 46.7812 23.8707 43.5948 22.6393 40.6217C21.4078 37.6487 19.6028 34.9473 17.3273 32.6719C15.0519 30.3964 12.3505 28.5914 9.37749 27.36C6.40446 26.1285 3.21798 25.4947 0 25.4947V19.6018Z" fill="white"/>
<path d="M0 29.896C2.64 29.896 5.25415 30.4159 7.6932 31.4262C10.1322 32.4365 12.3484 33.9173 14.2152 35.7841C16.0819 37.6508 17.5627 39.867 18.573 42.3061C19.5833 44.7451 20.1033 47.3593 20.1033 49.9993H14.2104C14.2104 48.1331 13.8429 46.2852 13.1287 44.5612C12.4146 42.8371 11.3679 41.2705 10.0483 39.951C8.72873 38.6314 7.16219 37.5847 5.4381 36.8705C3.71401 36.1564 1.86614 35.7888 0 35.7888V29.896Z" fill="white"/>
<path d="M0 41.1757C1.15872 41.1757 2.3061 41.4039 3.37662 41.8474C4.30003 42.2299 5.15066 42.766 5.89286 43.432C6.0111 43.5381 6.12659 43.6475 6.23918 43.7601C6.35177 43.8727 6.46116 43.9881 6.56726 44.1064C7.23324 44.8486 7.76939 45.6992 8.15188 46.6226C8.5953 47.6931 8.82353 48.8405 8.82353 49.9992H0V41.1757Z" fill="white"/>
<path d="M88.538 2.79053V9.61069e-07L65 0V2.79052L75.2339 2.79053V19.9988H78.3041V2.79053L88.538 2.79053Z" fill="white"/>
<path fill-rule="evenodd" clip-rule="evenodd" d="M97.7485 0C94.0747 0 91.0965 2.77657 91.0965 6.20165V19.9988H94.1667V14.4285H109.518V19.9988H112.588V6.20165C112.588 2.77657 109.609 0 105.936 0H97.7485ZM109.518 11.6433V6.20165C109.518 4.35738 107.914 2.8623 105.936 2.8623H97.7485C95.7703 2.8623 94.1667 4.35738 94.1667 6.20165V11.6433H109.518Z" fill="white"/>
<path fill-rule="evenodd" clip-rule="evenodd" d="M130.518 6.22894e-07C133.898 7.59812e-07 136.637 2.61021 136.637 5.83007C136.637 7.5527 135.853 9.10082 134.606 10.1681C135.85 11.1946 136.637 12.7106 136.637 14.4016C136.637 17.4935 134.007 20 130.761 20H115.146V0L130.518 6.22894e-07ZM118.145 2.85697V8.80318L130.52 8.80318C132.243 8.8019 133.639 7.47129 133.639 5.83007C133.639 4.18807 132.241 2.85697 130.518 2.85697L118.145 2.85697ZM118.145 11.6601V17.143H130.761C132.35 17.143 133.639 15.9156 133.639 14.4016C133.639 12.8875 132.35 11.6601 130.761 11.6601L118.145 11.6601Z" fill="white"/>
<path fill-rule="evenodd" clip-rule="evenodd" d="M160.687 6.20164C160.687 2.77657 157.778 7.54399e-07 154.19 6.08673e-07L139.196 0V19.9988H142.195V14.0028H154.19C157.778 14.0028 160.687 11.2263 160.687 7.80121V6.20164ZM142.195 11.1406H154.19C156.122 11.1406 157.688 9.64548 157.688 7.80121V6.20164C157.688 4.35737 156.122 2.8623 154.19 2.8623L142.195 2.8623V11.1406Z" fill="white"/>
<path d="M166.316 1.21978e-07V15.3479V19.9988H163.246V0L166.316 1.21978e-07Z" fill="white"/>
<path d="M184.737 1.21978e-07V19.9988H181.667V4.65087V0L184.737 1.21978e-07Z" fill="white"/>
<path d="M166.316 19.9988L181.667 4.65087V0L166.316 15.3479V19.9988Z" fill="white"/>
<path fill-rule="evenodd" clip-rule="evenodd" d="M197.529 0C193.855 0 190.877 2.77657 190.877 6.20165V17.2136H187.295V19.9988L215.95 19.9988V17.2136H212.368V0H197.529ZM209.298 17.2136V2.8623H197.529C195.551 2.8623 193.947 4.35738 193.947 6.20165V17.2136L209.298 17.2136Z" fill="white"/>
<path fill-rule="evenodd" clip-rule="evenodd" d="M225.161 0C221.487 0 218.509 2.77657 218.509 6.20165V19.9988H221.579V14.4285H236.93V19.9988H240V6.20165C240 2.77657 237.022 0 233.348 0H225.161ZM236.93 11.6433V6.20165C236.93 4.35738 235.326 2.8623 233.348 2.8623H225.161C223.183 2.8623 221.579 4.35738 221.579 6.20165V11.6433H236.93Z" fill="white"/>
<path d="M88.538 32.7907V30L65 30V32.7907L75.2339 32.7907V50H78.3041V32.7907L88.538 32.7907Z" fill="white"/>
<path d="M91.6082 50H114.123V47.2093H94.7498V41.1628L110.458 41.1628V38.3721L94.7498 38.3721V32.7907L114.123 32.7907V30H91.6082V50Z" fill="white"/>
<path d="M123.845 30C120.171 30 117.193 32.7716 117.193 36.1905V50H120.263V36.1905C120.263 34.3495 121.867 32.8571 123.845 32.8571H135.614V50H138.684V30H123.845Z" fill="white"/>
<path d="M141.754 50H164.269V47.2093H144.896V41.1628L160.604 41.1628V38.3721L144.896 38.3721V32.7907L164.269 32.7907V30H141.754V50Z" fill="white"/>
<path d="M187.807 31.9636L178.587 39.9302V40.0698L187.807 48.0364L185.535 50L175.244 41.1077L170.553 41.1077V49.9013H167.339V30H170.553V38.3308H175.893L185.535 30L187.807 31.9636Z" fill="white"/>
<path fill-rule="evenodd" clip-rule="evenodd" d="M197.529 30C193.855 30 190.877 32.7716 190.877 36.1905V43.8095C190.877 47.2284 193.855 50 197.529 50H205.716C209.39 50 212.368 47.2284 212.368 43.8095V36.1905C212.368 32.7716 209.39 30 205.716 30H197.529ZM198.041 32.8561C195.78 32.8561 193.947 34.5617 193.947 36.6656V43.3323C193.947 45.4362 195.78 47.1418 198.041 47.1418H205.205C207.465 47.1418 209.298 45.4362 209.298 43.3323V36.6656C209.298 34.5617 207.465 32.8561 205.205 32.8561H198.041Z" fill="white"/>
<path d="M240 30V50H236.93V34.7001L227.719 45.7524L218.509 34.7523V50H215.439V30L218.509 30V30.1447L227.719 41.1628L236.93 30.0786V30L240 30Z" fill="white"/>
</svg>
