<svg width="49" height="49" viewBox="0 0 49 49" fill="none" xmlns="http://www.w3.org/2000/svg">
<g clip-path="url(#clip0_76_1819)">
<path fill-rule="evenodd" clip-rule="evenodd" d="M44.5 24.4998C44.5 35.5458 35.546 44.4998 24.5 44.4998C22.2381 44.5027 19.9922 44.1212 17.858 43.3718C16.9583 41.1926 16.4969 38.8575 16.5 36.4998C16.4945 32.2321 18.0106 28.1023 20.776 24.8518C21.9695 26.5944 23.5699 28.0195 25.4387 29.0037C27.3074 29.9879 29.388 30.5014 31.5 30.4998C33.7404 30.5009 35.9429 29.9227 37.8938 28.8213C39.8447 27.7199 41.4776 26.1327 42.634 24.2138C43.114 23.4218 44.5 23.5738 44.5 24.4998Z" fill="#FAAF00"/>
<path d="M4.5 24.5C4.5 33.218 10.078 40.632 17.858 43.37C16.9586 41.1914 16.4971 38.857 16.5 36.5C16.5 32.058 18.11 27.992 20.776 24.852C19.2892 22.6889 18.4955 20.1248 18.5 17.5C18.4989 15.2597 19.0771 13.0571 20.1785 11.1062C21.28 9.15531 22.8672 7.52238 24.786 6.366C25.58 5.886 25.426 4.5 24.5 4.5C13.454 4.5 4.5 13.454 4.5 24.5Z" fill="#FF6A00"/>
</g>
<defs>
<clipPath id="clip0_76_1819">
<rect x="0.5" y="0.5" width="48" height="48" rx="24" fill="white"/>
</clipPath>
</defs>
</svg>
