<svg width="40" height="40" viewBox="0 0 40 40" fill="none" xmlns="http://www.w3.org/2000/svg">
<circle cx="20" cy="20" r="20" fill="url(#paint0_linear_1_470)"/>
<g clip-path="url(#clip0_1_470)">
<path d="M16.5368 27.1698C16.3532 26.9584 16.25 26.6716 16.25 26.3725C16.25 26.0735 16.3532 25.7867 16.5368 25.5753L21.3856 19.9932L16.5368 14.4111C16.3584 14.1984 16.2596 13.9136 16.2619 13.6179C16.2641 13.3222 16.3671 13.0394 16.5487 12.8303C16.7303 12.6212 16.976 12.5026 17.2329 12.5C17.4897 12.4975 17.7371 12.6111 17.9219 12.8166L23.4632 19.1959C23.6468 19.4074 23.75 19.6942 23.75 19.9932C23.75 20.2922 23.6468 20.579 23.4632 20.7905L17.9219 27.1698C17.7382 27.3812 17.4891 27.5 17.2293 27.5C16.9696 27.5 16.7205 27.3812 16.5368 27.1698Z" fill="white"/>
</g>
<defs>
<linearGradient id="paint0_linear_1_470" x1="1.53846" y1="8.74999" x2="41.9418" y2="11.5031" gradientUnits="userSpaceOnUse">
<stop stop-color="#FAAF00"/>
<stop offset="1" stop-color="#FA6400"/>
</linearGradient>
<clipPath id="clip0_1_470">
<rect width="17.5" height="40" fill="white" transform="translate(0 28.75) rotate(-90)"/>
</clipPath>
</defs>
</svg>
