<svg width="40" height="40" viewBox="0 0 40 40" fill="none" xmlns="http://www.w3.org/2000/svg">
<g filter="url(#filter0_b_1_463)">
<circle cx="20" cy="20" r="20" transform="matrix(-1 0 0 1 40 0)" fill="#424446" fill-opacity="0.03"/>
<circle cx="20" cy="20" r="19.5" transform="matrix(-1 0 0 1 40 0)" stroke="#424446"/>
</g>
<g clip-path="url(#clip0_1_463)">
<path d="M23.4632 27.1698C23.6468 26.9584 23.75 26.6716 23.75 26.3725C23.75 26.0735 23.6468 25.7867 23.4632 25.5753L18.6144 19.9932L23.4632 14.4111C23.6416 14.1984 23.7404 13.9136 23.7381 13.6179C23.7359 13.3222 23.6329 13.0394 23.4513 12.8303C23.2697 12.6212 23.024 12.5026 22.7671 12.5C22.5103 12.4975 22.2629 12.6111 22.0781 12.8166L16.5368 19.1959C16.3532 19.4074 16.25 19.6942 16.25 19.9932C16.25 20.2922 16.3532 20.579 16.5368 20.7905L22.0781 27.1698C22.2618 27.3812 22.5109 27.5 22.7707 27.5C23.0304 27.5 23.2795 27.3812 23.4632 27.1698Z" fill="#424446"/>
</g>
<defs>
<filter id="filter0_b_1_463" x="-16" y="-16" width="72" height="72" filterUnits="userSpaceOnUse" color-interpolation-filters="sRGB">
<feFlood flood-opacity="0" result="BackgroundImageFix"/>
<feGaussianBlur in="BackgroundImageFix" stdDeviation="8"/>
<feComposite in2="SourceAlpha" operator="in" result="effect1_backgroundBlur_1_463"/>
<feBlend mode="normal" in="SourceGraphic" in2="effect1_backgroundBlur_1_463" result="shape"/>
</filter>
<clipPath id="clip0_1_463">
<rect width="17.5" height="40" fill="white" transform="matrix(4.37114e-08 -1 -1 -4.37114e-08 40 28.75)"/>
</clipPath>
</defs>
</svg>
