<svg width="17" height="17" viewBox="0 0 17 17" fill="none" xmlns="http://www.w3.org/2000/svg">
<path d="M2.38599 5.79279C2.57351 5.60532 2.82782 5.5 3.09299 5.5C3.35815 5.5 3.61246 5.60532 3.79999 5.79279L8.74999 10.7428L13.7 5.79279C13.8886 5.61063 14.1412 5.50983 14.4034 5.51211C14.6656 5.51439 14.9164 5.61956 15.1018 5.80497C15.2872 5.99038 15.3924 6.24119 15.3947 6.50339C15.3969 6.76558 15.2961 7.01818 15.114 7.20679L9.45699 12.8638C9.26946 13.0513 9.01515 13.1566 8.74999 13.1566C8.48482 13.1566 8.23052 13.0513 8.04299 12.8638L2.38599 7.20679C2.19852 7.01926 2.0932 6.76495 2.0932 6.49979C2.0932 6.23462 2.19852 5.98031 2.38599 5.79279Z" fill="#FF6A00"/>
</svg>
