<svg width="28" height="31" viewBox="0 0 28 31" fill="none" xmlns="http://www.w3.org/2000/svg">
<path d="M0 13.825V3.26667H1.11766V4.9C1.33843 4.32639 1.66959 3.88403 2.11114 3.57292C2.56188 3.25208 3.07702 3.09167 3.65654 3.09167C4.55803 3.09167 5.28474 3.44653 5.83667 4.15625C6.3886 4.86597 6.66457 5.84306 6.66457 7.0875C6.66457 8.33194 6.3886 9.30903 5.83667 10.0187C5.28474 10.7285 4.55803 11.0833 3.65654 11.0833C3.11381 11.0833 2.63087 10.9424 2.20772 10.6604C1.78458 10.3785 1.45342 9.975 1.21425 9.45V13.825H0ZM1.72478 4.91458C1.33843 5.45903 1.14526 6.18333 1.14526 7.0875C1.14526 7.99167 1.33843 8.71597 1.72478 9.26042C2.12034 9.80486 2.64927 10.0771 3.31159 10.0771C3.9739 10.0771 4.49824 9.80486 4.88459 9.26042C5.27094 8.71597 5.46412 7.99167 5.46412 7.0875C5.46412 6.18333 5.27094 5.45903 4.88459 4.91458C4.49824 4.37014 3.9739 4.09792 3.31159 4.09792C2.64927 4.09792 2.12034 4.37014 1.72478 4.91458Z" fill="#424446"/>
<path d="M13.1611 3.26667H14.4581L11.7675 11.7833C11.5191 12.6292 11.2247 13.2076 10.8844 13.5188C10.544 13.8396 10.0289 14 9.33895 14C9.10898 14 8.84222 13.9854 8.53866 13.9563V12.9646C8.86981 12.984 9.11358 12.9938 9.26996 12.9938C9.64712 12.9938 9.93228 12.8965 10.1255 12.7021C10.3186 12.5076 10.498 12.1382 10.6636 11.5938L10.8706 10.9083H10.1944L7.46239 3.26667H8.78702L11.1603 10.3979L13.1611 3.26667Z" fill="#424446"/>
<path d="M18.9825 3.5C19.9392 3.5 20.7119 3.84028 21.3007 4.52083C21.8894 5.20139 22.1838 6.125 22.1838 7.29167C22.1838 8.46806 21.8756 9.39653 21.2593 10.0771C20.6521 10.7479 19.8242 11.0833 18.7756 11.0833C16.4943 11.0833 15.3536 9.46458 15.3536 6.22708C15.3536 4.52569 15.579 3.22778 16.0297 2.33333C16.4805 1.43889 17.2164 0.879861 18.2374 0.65625C18.4306 0.607639 18.6284 0.56875 18.8308 0.539583C19.0423 0.500694 19.2631 0.466666 19.4931 0.4375C19.7323 0.408333 19.9116 0.384028 20.0312 0.364583C20.6383 0.267361 21.1167 0.145833 21.4662 0V1.00625C21.2179 1.17153 20.7901 1.30278 20.183 1.4C20.045 1.41944 19.8334 1.44861 19.5483 1.4875C19.2631 1.52639 19.0239 1.56042 18.8308 1.58958C18.4536 1.63819 18.1317 1.73056 17.8649 1.86667C17.6073 1.99306 17.3544 2.20208 17.106 2.49375C16.8576 2.77569 16.6598 3.18889 16.5127 3.73333C16.3655 4.27778 16.2689 4.95347 16.2229 5.76042C16.4161 5.05069 16.7472 4.49653 17.2164 4.09792C17.6947 3.69931 18.2834 3.5 18.9825 3.5ZM18.7756 10.0771C19.4563 10.0771 19.9944 9.82917 20.39 9.33333C20.7855 8.82778 20.9833 8.14722 20.9833 7.29167C20.9833 6.43611 20.7855 5.76042 20.39 5.26458C19.9944 4.75903 19.4563 4.50625 18.7756 4.50625C18.0857 4.50625 17.5429 4.75903 17.1474 5.26458C16.7518 5.76042 16.5541 6.43611 16.5541 7.29167C16.5541 8.14722 16.7518 8.82778 17.1474 9.33333C17.5429 9.82917 18.0857 10.0771 18.7756 10.0771Z" fill="#424446"/>
<path d="M23.6064 10.9083V9.23125H25V10.9083H23.6064Z" fill="#424446"/>
<rect y="18" width="28" height="1" fill="#424446"/>
<path d="M6.8671 23.1752H8.95151V30.8248H7.73798V24.0657L5.25383 30.8248H3.68339L1.21352 24.0657V30.8248H0V23.1752H2.09868L4.48289 30.1241L6.8671 23.1752Z" fill="#424446"/>
<path d="M10.4884 27C10.4884 25.6959 10.8072 24.7032 11.4449 24.0219C12.0921 23.3406 12.9487 23 14.0147 23C15.1093 23 15.9421 23.3455 16.5132 24.0365C17.0937 24.7275 17.384 25.7786 17.384 27.1898V27.365H11.7447C11.7923 28.2409 12.0255 28.9124 12.4443 29.3796C12.8726 29.837 13.4294 30.0657 14.1147 30.0657C15.0855 30.0657 15.747 29.6277 16.0991 28.7518L17.2841 28.8248C17.0842 29.5061 16.713 30.0414 16.1705 30.4307C15.628 30.8102 14.9427 31 14.1147 31C13.0011 31 12.1159 30.6642 11.4592 29.9927C10.812 29.3114 10.4884 28.3139 10.4884 27ZM11.759 26.5182H16.142C16.1324 25.7202 15.9326 25.0925 15.5423 24.635C15.1616 24.1679 14.6524 23.9343 14.0147 23.9343C13.3865 23.9343 12.8678 24.1582 12.4586 24.6058C12.0493 25.0438 11.8161 25.6813 11.759 26.5182Z" fill="#424446"/>
<path d="M18.4633 27C18.4633 25.7251 18.7726 24.7421 19.3912 24.0511C20.0099 23.3504 20.8475 23 21.904 23C22.7606 23 23.4792 23.2336 24.0597 23.7007C24.6498 24.1679 25.002 24.8345 25.1162 25.7007L23.917 25.8175C23.8218 25.2238 23.5886 24.7762 23.2174 24.4745C22.8557 24.163 22.4179 24.0073 21.904 24.0073C21.2377 24.0073 20.7047 24.2749 20.305 24.8102C19.9052 25.3358 19.7053 26.0657 19.7053 27C19.7053 27.9343 19.9052 28.6691 20.305 29.2044C20.7142 29.7299 21.2567 29.9927 21.9325 29.9927C22.4655 29.9927 22.9128 29.8321 23.2745 29.5109C23.6457 29.18 23.8837 28.7129 23.9884 28.1095L25.1876 28.2117C25.0734 29.0973 24.7212 29.7835 24.1311 30.2701C23.541 30.7567 22.8081 31 21.9325 31C20.857 31 20.0099 30.6545 19.3912 29.9635C18.7726 29.2725 18.4633 28.2847 18.4633 27Z" fill="#424446"/>
<path d="M26.5581 30.8248V29.146H28V30.8248H26.5581Z" fill="#424446"/>
</svg>
