<svg width="49" height="49" viewBox="0 0 49 49" fill="none" xmlns="http://www.w3.org/2000/svg">
<g clip-path="url(#clip0_0_724)">
<path d="M36.5 24.5C36.5 27.6826 35.2357 30.7348 32.9853 32.9853C30.7348 35.2357 27.6826 36.5 24.5 36.5C21.3174 36.5 18.2652 35.2357 16.0147 32.9853C13.7643 30.7348 12.5 27.6826 12.5 24.5C12.5 21.3174 13.7643 18.2652 16.0147 16.0147C18.2652 13.7643 21.3174 12.5 24.5 12.5C27.6826 12.5 30.7348 13.7643 32.9853 16.0147C35.2357 18.2652 36.5 21.3174 36.5 24.5Z" fill="#FF6A00"/>
<path fill-rule="evenodd" clip-rule="evenodd" d="M24.5 3C24.8978 3 25.2794 3.15804 25.5607 3.43934C25.842 3.72064 26 4.10218 26 4.5V6.5C26 6.89782 25.842 7.27936 25.5607 7.56066C25.2794 7.84196 24.8978 8 24.5 8C24.1022 8 23.7206 7.84196 23.4393 7.56066C23.158 7.27936 23 6.89782 23 6.5V4.5C23 4.10218 23.158 3.72064 23.4393 3.43934C23.7206 3.15804 24.1022 3 24.5 3ZM3 24.5C3 24.1022 3.15804 23.7206 3.43934 23.4393C3.72064 23.158 4.10218 23 4.5 23H6.5C6.89782 23 7.27936 23.158 7.56066 23.4393C7.84196 23.7206 8 24.1022 8 24.5C8 24.8978 7.84196 25.2794 7.56066 25.5607C7.27936 25.842 6.89782 26 6.5 26H4.5C4.10218 26 3.72064 25.842 3.43934 25.5607C3.15804 25.2794 3 24.8978 3 24.5ZM41 24.5C41 24.1022 41.158 23.7206 41.4393 23.4393C41.7206 23.158 42.1022 23 42.5 23H44.5C44.8978 23 45.2794 23.158 45.5607 23.4393C45.842 23.7206 46 24.1022 46 24.5C46 24.8978 45.842 25.2794 45.5607 25.5607C45.2794 25.842 44.8978 26 44.5 26H42.5C42.1022 26 41.7206 25.842 41.4393 25.5607C41.158 25.2794 41 24.8978 41 24.5ZM24.5 41C24.8978 41 25.2794 41.158 25.5607 41.4393C25.842 41.7206 26 42.1022 26 42.5V44.5C26 44.8978 25.842 45.2794 25.5607 45.5607C25.2794 45.842 24.8978 46 24.5 46C24.1022 46 23.7206 45.842 23.4393 45.5607C23.158 45.2794 23 44.8978 23 44.5V42.5C23 42.1022 23.158 41.7206 23.4393 41.4393C23.7206 41.158 24.1022 41 24.5 41Z" fill="#FF6A00"/>
<path d="M9.29622 9.29612C9.43552 9.15673 9.60092 9.04616 9.78297 8.97072C9.96502 8.89528 10.1602 8.85645 10.3572 8.85645C10.5543 8.85645 10.7494 8.89528 10.9315 8.97072C11.1135 9.04616 11.2789 9.15673 11.4182 9.29612L12.2042 10.0821C12.4692 10.3665 12.6134 10.7426 12.6066 11.1312C12.5997 11.5198 12.4423 11.8905 12.1675 12.1654C11.8926 12.4402 11.5219 12.5976 11.1333 12.6045C10.7447 12.6113 10.3686 12.4671 10.0842 12.2021L9.29622 11.4181C9.01532 11.1369 8.85754 10.7556 8.85754 10.3581C8.85754 9.96062 9.01532 9.57938 9.29622 9.29813M39.7002 9.29813C39.9811 9.57938 40.1389 9.96062 40.1389 10.3581C40.1389 10.7556 39.9811 11.1369 39.7002 11.4181L38.9162 12.2041C38.6319 12.4691 38.2558 12.6133 37.8672 12.6065C37.4786 12.5996 37.1078 12.4422 36.833 12.1674C36.5581 11.8925 36.4007 11.5218 36.3939 11.1332C36.387 10.7446 36.5313 10.3685 36.7962 10.0841L37.5802 9.29813C37.8615 9.01722 38.2427 8.85944 38.6402 8.85944C39.0377 8.85944 39.419 9.01722 39.7002 9.29813ZM36.7942 36.7941C36.9335 36.6547 37.0989 36.5442 37.281 36.4687C37.463 36.3933 37.6582 36.3544 37.8552 36.3544C38.0523 36.3544 38.2474 36.3933 38.4295 36.4687C38.6115 36.5442 38.7769 36.6547 38.9162 36.7941L39.7022 37.5801C39.9672 37.8645 40.1114 38.2406 40.1046 38.6292C40.0977 39.0178 39.9403 39.3885 39.6655 39.6634C39.3906 39.9382 39.0199 40.0956 38.6313 40.1025C38.2427 40.1093 37.8666 39.9651 37.5822 39.7001L36.7942 38.9161C36.5133 38.6349 36.3555 38.2536 36.3555 37.8561C36.3555 37.4586 36.5133 37.0774 36.7942 36.7961M12.2042 36.7961C12.4851 37.0774 12.6429 37.4586 12.6429 37.8561C12.6429 38.2536 12.4851 38.6349 12.2042 38.9161L11.4182 39.7021C11.2809 39.8495 11.1153 39.9677 10.9313 40.0497C10.7473 40.1317 10.5487 40.1758 10.3473 40.1793C10.1459 40.1829 9.9458 40.1458 9.75902 40.0704C9.57225 39.9949 9.40258 39.8826 9.26014 39.7402C9.1177 39.5978 9.00541 39.4281 8.92997 39.2413C8.85453 39.0545 8.81748 38.8545 8.82103 38.6531C8.82459 38.4517 8.86867 38.253 8.95065 38.069C9.03264 37.8851 9.15084 37.7195 9.29822 37.5821L10.0822 36.7961C10.3635 36.5152 10.7447 36.3574 11.1422 36.3574C11.5397 36.3574 11.921 36.5152 12.2022 36.7961" fill="#FAAF00"/>
</g>
<defs>
<clipPath id="clip0_0_724">
<rect x="0.5" y="0.5" width="48" height="48" rx="24" fill="white"/>
</clipPath>
</defs>
</svg>
