<svg width="40" height="40" viewBox="0 0 40 40" fill="none" xmlns="http://www.w3.org/2000/svg">
<circle cx="20" cy="20" r="20" fill="url(#paint0_linear_1_424)"/>
<path d="M27.5 11.375H12.5C11.8038 11.375 11.1361 11.6516 10.6438 12.1438C10.1516 12.6361 9.875 13.3038 9.875 14V24.5C9.875 25.1962 10.1516 25.8639 10.6438 26.3562C11.1361 26.8484 11.8038 27.125 12.5 27.125H27.5C27.8447 27.125 28.1861 27.0571 28.5045 26.9252C28.823 26.7933 29.1124 26.5999 29.3562 26.3562C29.5999 26.1124 29.7933 25.823 29.9252 25.5045C30.0571 25.1861 30.125 24.8447 30.125 24.5V14C30.125 13.6553 30.0571 13.3139 29.9252 12.9955C29.7933 12.677 29.5999 12.3876 29.3562 12.1438C29.1124 11.9001 28.823 11.7067 28.5045 11.5748C28.1861 11.4429 27.8447 11.375 27.5 11.375ZM27.875 24.5C27.875 24.5995 27.8355 24.6948 27.7652 24.7652C27.6948 24.8355 27.5995 24.875 27.5 24.875H12.5C12.4005 24.875 12.3052 24.8355 12.2348 24.7652C12.1645 24.6948 12.125 24.5995 12.125 24.5V14C12.125 13.9005 12.1645 13.8052 12.2348 13.7348C12.3052 13.6645 12.4005 13.625 12.5 13.625H27.5C27.5995 13.625 27.6948 13.6645 27.7652 13.7348C27.8355 13.8052 27.875 13.9005 27.875 14V24.5ZM24.125 29.375C24.125 29.6734 24.0065 29.9595 23.7955 30.1705C23.5845 30.3815 23.2984 30.5 23 30.5H17C16.7016 30.5 16.4155 30.3815 16.2045 30.1705C15.9935 29.9595 15.875 29.6734 15.875 29.375C15.875 29.0766 15.9935 28.7905 16.2045 28.5795C16.4155 28.3685 16.7016 28.25 17 28.25H23C23.2984 28.25 23.5845 28.3685 23.7955 28.5795C24.0065 28.7905 24.125 29.0766 24.125 29.375Z" fill="white"/>
<defs>
<linearGradient id="paint0_linear_1_424" x1="1.53846" y1="8.74999" x2="41.9418" y2="11.5031" gradientUnits="userSpaceOnUse">
<stop stop-color="#FAAF00"/>
<stop offset="1" stop-color="#FA6400"/>
</linearGradient>
</defs>
</svg>
