<svg width="40" height="40" viewBox="0 0 40 40" fill="none" xmlns="http://www.w3.org/2000/svg">
<circle cx="20" cy="20" r="20" fill="url(#paint0_linear_1_418)"/>
<path fill-rule="evenodd" clip-rule="evenodd" d="M9.37099 16.1432C15.229 10.2862 24.727 10.2862 30.584 16.1432C30.6537 16.2129 30.709 16.2956 30.7467 16.3866C30.7844 16.4776 30.8038 16.5752 30.8038 16.6737C30.8038 16.7723 30.7844 16.8698 30.7467 16.9609C30.709 17.0519 30.6537 17.1346 30.584 17.2042L30.054 17.7342C29.9134 17.8747 29.7227 17.9536 29.524 17.9536C29.3252 17.9536 29.1346 17.8747 28.994 17.7342C24.014 12.7552 15.941 12.7552 10.962 17.7342C10.8214 17.8747 10.6307 17.9536 10.432 17.9536C10.2332 17.9536 10.0426 17.8747 9.90199 17.7342L9.37199 17.2042C9.23154 17.0636 9.15265 16.873 9.15265 16.6742C9.15265 16.4755 9.23154 16.2849 9.37199 16.1442L9.37099 16.1432ZM12.553 19.3252C16.653 15.2252 23.302 15.2252 27.403 19.3252C27.4727 19.3949 27.528 19.4776 27.5657 19.5686C27.6034 19.6596 27.6228 19.7572 27.6228 19.8557C27.6228 19.9543 27.6034 20.0518 27.5657 20.1429C27.528 20.2339 27.4727 20.3166 27.403 20.3862L26.873 20.9162C26.8033 20.9861 26.7206 21.0415 26.6294 21.0793C26.5383 21.1171 26.4406 21.1366 26.342 21.1366C26.2433 21.1366 26.1457 21.1171 26.0545 21.0793C25.9634 21.0415 25.8807 20.9861 25.811 20.9162C24.2638 19.3691 22.1655 18.5 19.9775 18.5C17.7895 18.5 15.6912 19.3691 14.144 20.9162C14.0034 21.0567 13.8127 21.1356 13.614 21.1356C13.4152 21.1356 13.2246 21.0567 13.084 20.9162L12.554 20.3862C12.4135 20.2456 12.3346 20.055 12.3346 19.8562C12.3346 19.6575 12.4135 19.4669 12.554 19.3262L12.553 19.3252ZM15.757 22.5072C16.3142 21.95 16.9756 21.5079 17.7037 21.2063C18.4317 20.9047 19.212 20.7495 20 20.7495C20.788 20.7495 21.5683 20.9047 22.2963 21.2063C23.0243 21.5079 23.6858 21.95 24.243 22.5072C24.3127 22.5769 24.368 22.6596 24.4057 22.7506C24.4434 22.8416 24.4628 22.9392 24.4628 23.0377C24.4628 23.1363 24.4434 23.2338 24.4057 23.3249C24.368 23.4159 24.3127 23.4986 24.243 23.5682L23.713 24.0982C23.6433 24.1679 23.5606 24.2232 23.4696 24.2609C23.3786 24.2987 23.281 24.3181 23.1825 24.3181C23.084 24.3181 22.9864 24.2987 22.8954 24.2609C22.8043 24.2232 22.7216 24.1679 22.652 24.0982C22.3038 23.7499 21.8903 23.4736 21.4353 23.2851C20.9802 23.0966 20.4925 22.9995 20 22.9995C19.5074 22.9995 19.0197 23.0966 18.5647 23.2851C18.1097 23.4736 17.6962 23.7499 17.348 24.0982C17.2074 24.2387 17.0167 24.3176 16.818 24.3176C16.6192 24.3176 16.4286 24.2387 16.288 24.0982L15.758 23.5682C15.6175 23.4276 15.5386 23.237 15.5386 23.0382C15.5386 22.8395 15.6175 22.6489 15.758 22.5082L15.757 22.5072ZM18.939 25.6892C19.0783 25.5498 19.2437 25.4393 19.4257 25.3638C19.6078 25.2884 19.8029 25.2496 20 25.2496C20.1971 25.2496 20.3922 25.2884 20.5742 25.3638C20.7563 25.4393 20.9217 25.5498 21.061 25.6892C21.1307 25.7589 21.186 25.8416 21.2237 25.9326C21.2614 26.0236 21.2808 26.1212 21.2808 26.2197C21.2808 26.3183 21.2614 26.4158 21.2237 26.5069C21.186 26.5979 21.1307 26.6806 21.061 26.7502L20.531 27.2802C20.4613 27.3499 20.3786 27.4052 20.2876 27.4429C20.1966 27.4807 20.099 27.5001 20.0005 27.5001C19.902 27.5001 19.8044 27.4807 19.7134 27.4429C19.6223 27.4052 19.5396 27.3499 19.47 27.2802L18.94 26.7502C18.7995 26.6096 18.7206 26.419 18.7206 26.2202C18.7206 26.0215 18.7995 25.8309 18.94 25.6902L18.939 25.6892Z" fill="white"/>
<defs>
<linearGradient id="paint0_linear_1_418" x1="1.53846" y1="8.74999" x2="41.9418" y2="11.5031" gradientUnits="userSpaceOnUse">
<stop stop-color="#FAAF00"/>
<stop offset="1" stop-color="#FA6400"/>
</linearGradient>
</defs>
</svg>
